<?xml version="1.0" encoding="UTF-8" standalone="no"?>
<!-- Created with Inkscape (http://www.inkscape.org/) -->

<svg
   width="185.20833mm"
   height="130.05444mm"
   viewBox="0 0 185.20833 130.05444"
   version="1.1"
   id="svg812"
   xml:space="preserve"
   inkscape:version="1.2.2 (b0a8486541, 2022-12-01, custom)"
   sodipodi:docname="copo_cheio_logo.svg"
   xmlns:inkscape="http://www.inkscape.org/namespaces/inkscape"
   xmlns:sodipodi="http://sodipodi.sourceforge.net/DTD/sodipodi-0.dtd"
   xmlns="http://www.w3.org/2000/svg"
   xmlns:svg="http://www.w3.org/2000/svg"><sodipodi:namedview
     id="namedview814"
     pagecolor="#ffffff"
     bordercolor="#000000"
     borderopacity="0.25"
     inkscape:showpageshadow="2"
     inkscape:pageopacity="0.0"
     inkscape:pagecheckerboard="0"
     inkscape:deskcolor="#d1d1d1"
     inkscape:document-units="mm"
     showgrid="false"
     showguides="false"
     inkscape:zoom="0.24258858"
     inkscape:cx="247.33234"
     inkscape:cy="989.32935"
     inkscape:window-width="1366"
     inkscape:window-height="683"
     inkscape:window-x="0"
     inkscape:window-y="0"
     inkscape:window-maximized="1"
     inkscape:current-layer="svg812" /><defs
     id="defs809" /><rect
     style="fill:#d2b67f;fill-opacity:1;stroke:none;stroke-width:4.22652;stroke-linecap:round;stroke-linejoin:round;paint-order:stroke fill markers"
     id="rect1073"
     width="235.47917"
     height="450.147"
     x="-25.135418"
     y="-41.19529"
     ry="13.979714" /><g
     id="g921"
     transform="matrix(0.98247921,0,0,0.98247921,-10.937058,-85.764692)"
     inkscape:export-filename="../7ef96e3c/logo_copo_cheio.svg"
     inkscape:export-xdpi="96"
     inkscape:export-ydpi="96"><g
       id="g6924"><rect
         style="fill:#2b1100;fill-opacity:1;stroke:none;stroke-width:2.8847;stroke-opacity:1"
         id="rect3190"
         width="171.2702"
         height="65.228409"
         x="71.335197"
         y="162.53989"
         ry="0"
         rx="0"
         transform="matrix(1,0,-0.26431727,0.96443578,0,0)" /><path
         d="m 152.75358,134.93921 c 0,24.77101 -20.08133,44.85233 -44.85233,44.85233 -24.771007,0 -44.852332,-20.08132 -44.852332,-44.85233 0,-24.77101 20.081325,-44.852328 44.852332,-44.852328 24.771,0 44.85233,20.081318 44.85233,44.852328"
         style="fill:#f89b0f;fill-opacity:1;fill-rule:nonzero;stroke:none;stroke-width:0.049816"
         id="path963" /><path
         d="m 70.562538,146.13214 -3.674533,-6.67032 c 0,0 -1.213556,-4.52473 -1.303514,-4.91807 -0.08996,-0.3937 0.463197,-1.84115 0.647347,-1.91665 0.18415,-0.0758 6.54297,-1.54093 6.54297,-1.54093 l 6.608234,14.50658 c 0,0 1.417108,2.57527 -0.128764,3.35385 0,0 -4.153606,2.64019 -6.303787,0.72532 -2.150533,-1.91488 -2.387953,-3.53978 -2.387953,-3.53978 z m -2.2733,7.68033 c 2.389717,4.18465 12.919782,0.23918 12.919782,0.23918 l 5.743575,6.05967 c 0,0 3.244145,0.67592 10.360026,-1.10067 7.115529,-1.77624 16.848319,-8.36013 17.837499,-11.54113 0.98884,-3.18135 -6.00321,-14.37287 -6.00321,-14.37287 l -6.9649,-15.31691 -3.745439,-6.78497 -3.706284,-0.8689 c 0,0 -9.223376,3.16901 -16.077143,6.51193 -6.853767,3.34327 -7.5819,8.09202 -7.5819,8.09202 l 0.416983,2.41194 -4.649964,0.0931 c 0,0 -3.274131,1.34585 -4.925836,2.2158 -1.651706,0.87031 -2.553053,2.86738 -1.880306,4.50462 0.672747,1.63689 5.441245,12.30736 5.441245,12.30736 0,0 0.426155,3.36515 2.815872,7.5498"
         style="fill:#f9ae0b;fill-opacity:1;fill-rule:nonzero;stroke:none;stroke-width:0.0352778"
         id="path1033" /><path
         d="m 70.562538,146.13214 -3.674533,-6.67032 c 0,0 -1.213556,-4.52473 -1.303514,-4.91807 -0.08996,-0.3937 0.463197,-1.84115 0.647347,-1.91665 0.18415,-0.0758 6.54297,-1.54093 6.54297,-1.54093 l 6.608234,14.50658 c 0,0 1.417108,2.57527 -0.128764,3.35385 0,0 -4.153606,2.64019 -6.303787,0.72532 -2.150533,-1.91488 -2.387953,-3.53978 -2.387953,-3.53978 z m -2.2733,7.68033 c 2.389717,4.18465 12.919782,0.23918 12.919782,0.23918 l 5.743575,6.05967 c 0,0 3.244145,0.67592 10.360026,-1.10067 7.115529,-1.77624 16.848319,-8.36013 17.837499,-11.54113 0.98884,-3.18135 -6.00321,-14.37287 -6.00321,-14.37287 l -6.9649,-15.31691 -3.745439,-6.78497 -3.706284,-0.8689 c 0,0 -9.223376,3.16901 -16.077143,6.51193 -6.853767,3.34327 -7.5819,8.09202 -7.5819,8.09202 l 0.416983,2.41194 -4.649964,0.0931 c 0,0 -3.274131,1.34585 -4.925836,2.2158 -1.651706,0.87031 -2.553053,2.86738 -1.880306,4.50462 0.672747,1.63689 5.441245,12.30736 5.441245,12.30736 0,0 0.426155,3.36515 2.815872,7.5498 z"
         style="fill:none;stroke:#211d1d;stroke-width:0.352778;stroke-linecap:butt;stroke-linejoin:miter;stroke-miterlimit:10;stroke-dasharray:none;stroke-opacity:1"
         id="path1035" /><path
         d="m 71.764452,129.85074 c 0,0 -3.237794,-0.89394 -5.769681,1.15147 -2.532239,2.0454 -3.449814,2.7813 -1.412875,7.03933 2.037292,4.25767 3.922889,8.14705 4.582231,10.10073 0.659342,1.95368 3.464278,2.66665 3.464278,2.66665 0,0 -3.876675,-7.16174 -4.038953,-7.38188 -0.162278,-0.22048 -3.077281,-8.71008 -3.077281,-8.71008 l 1.900414,-2.36008 c 0,0 3.776839,-0.76271 4.09822,-0.67945 0.321028,0.0833 1.617133,0.26811 1.617133,0.26811 l -1.363486,-2.0948"
         style="fill:#f14625;fill-opacity:1;fill-rule:nonzero;stroke:none;stroke-width:0.0352778"
         id="path1037" /><path
         d="m 96.251112,138.44476 c 0,0 -5.756275,-14.35488 -7.691261,-14.34888 -1.935339,0.006 -1.248128,3.59868 0.388055,8.4522 1.635831,4.85317 -4.049889,-7.23406 -4.049889,-7.23406 l 1.005769,-3.14043 c 0,0 3.498498,-0.21801 3.697112,-0.0843 0.198261,0.1337 1.775178,1.35149 1.775178,1.35149 l 4.875036,15.00399"
         style="fill:#f14625;fill-opacity:1;fill-rule:nonzero;stroke:none;stroke-width:0.0352778"
         id="path1039" /><path
         d="m 106.65418,140.80308 c 0,0 -1.86726,-9.52641 -4.18853,-15.17438 -2.32128,-5.64798 -3.855513,-6.23747 -3.855513,-6.23747 0,0 6.648453,18.28589 8.044043,21.41185"
         style="fill:#ffffff;fill-opacity:1;fill-rule:nonzero;stroke:none;stroke-width:0.0352778"
         id="path1041" /><path
         d="m 109.39597,144.23702 c 0,0 -6.99065,3.80612 -11.765849,5.76862 -5.40244,2.22039 -10.832748,2.80176 -10.815109,3.36868 0.01764,0.56691 6.758164,0.37994 10.44187,-1.13418 3.683358,-1.51377 9.357428,-4.99428 9.357428,-4.99428 l 2.78166,-3.00884"
         style="fill:#ffffff;fill-opacity:1;fill-rule:nonzero;stroke:none;stroke-width:0.0352778"
         id="path1043" /><path
         d="m 97.163748,113.71856 c 0,0 1.794228,2.03729 3.649132,7.01569 1.85491,4.97876 6.15209,14.50306 7.90716,17.60891 1.75507,3.10621 1.43546,5.82084 0.31292,7.04744 -1.12219,1.22697 -9.949042,6.29003 -13.636981,7.3272 -3.687939,1.03752 -8.963731,1.00506 -9.469615,1.40441 -0.50553,0.39934 2.996495,4.03119 9.920465,1.08938 6.923971,-2.94147 11.792651,-5.99476 12.345461,-4.88245 0.5528,1.11231 0.49459,1.90147 0.49459,1.90147 0,0 6.28015,-4.97311 6.61423,-7.88529 0.33408,-2.91182 -4.36985,-8.53757 -4.36985,-8.53757 l -4.60129,-8.63389 -2.74743,-9.01312 -4.507089,-5.61093 -2.589036,-0.94509 0.677333,2.11384"
         style="fill:#f14625;fill-opacity:1;fill-rule:nonzero;stroke:none;stroke-width:0.0352778"
         id="path1045" /><path
         d="m 105.3877,140.07177 c 0,0 -2.11419,-2.00166 -3.46921,-5.82224 -1.35502,-3.82058 -4.306361,-12.2234 -5.756983,-13.13428 -1.450976,-0.91087 -1.979084,0.59797 -1.979084,0.59797 l -0.348192,-2.94253 c 0,0 1.895476,-0.27693 2.826456,0.41699 0.930981,0.69391 3.117145,3.74227 3.117145,3.74227 L 105,136.85832 l 0.3877,3.21345"
         style="fill:#f14625;fill-opacity:1;fill-rule:nonzero;stroke:none;stroke-width:0.0352778"
         id="path1047" /><path
         d="m 86.461881,149.10218 c 0,0 -5.3721,-8.08602 -7.693378,-13.73399 -2.321278,-5.64798 -1.645003,-7.14587 -1.645003,-7.14587 0,0 8.132234,17.67628 9.338381,20.87986"
         style="fill:#ffffff;fill-opacity:1;fill-rule:nonzero;stroke:none;stroke-width:0.0352778"
         id="path1049" /><path
         d="m 86.847467,147.69177 c 0,0 0.09596,-2.91006 -1.627364,-6.57895 -1.723319,-3.66924 -5.534378,-11.71893 -5.143147,-13.38686 0.390877,-1.66758 1.827389,-0.96626 1.827389,-0.96626 L 80.0826,124.42255 c 0,0 -1.542345,1.1363 -1.716264,2.28424 -0.174272,1.14794 0.415572,4.85246 0.415572,4.85246 l 6.08189,13.57524 1.983669,2.55728"
         style="fill:#f14625;fill-opacity:1;fill-rule:nonzero;stroke:none;stroke-width:0.0352778"
         id="path1051" /><path
         d="m 82.709031,151.24037 c -2.202745,-10.48068 -10.420351,-24.59885 -9.695745,-27.78126 0.948266,-4.16631 9.602259,-7.30638 11.491384,-7.59954 0,0 10.133542,-5.07118 13.737873,-2.77601 2.752727,1.75331 6.838597,17.56975 12.642847,26.57052 3.68371,5.71254 -1.36595,10.98304 -4.52931,12.90074 -3.98286,2.41441 -10.204098,4.89655 -12.189885,5.26132 -4.103511,0.75354 -10.059106,0.0766 -11.457164,-6.57577 z m 3.26143,11.19399 c 3.230034,1.07244 11.312879,-2.09233 16.185449,-4.24251 4.98722,-1.91311 12.76173,-5.29413 14.28256,-8.28604 2.27506,-4.47499 0.51082,-8.53405 -4.31306,-14.68438 -4.82424,-6.15033 -8.14176,-19.80883 -10.686,-22.97325 -2.544581,-3.16441 -5.336465,-2.97356 -8.00417,-1.78152 -2.667353,1.19203 -9.576859,3.93629 -9.576859,3.93629 l 0.0035,0.008 c -1.357489,0.57503 -6.881637,2.90795 -9.271354,3.80647 -2.734733,1.02835 -4.85387,2.85644 -4.437945,6.8954 0.416278,4.03895 7.662687,16.08279 8.557684,23.84778 0.89535,7.76499 2.495551,11.89143 7.260167,13.47329"
         style="fill:#100f0d;fill-opacity:1;fill-rule:nonzero;stroke:none;stroke-width:0.0352778"
         id="path1053" /><path
         d="m 106.65418,140.80308 c 0,0 -6.01874,-20.53732 -8.829679,-22.42644 -2.811286,-1.88877 -5.42925,-0.007 -5.691717,1.71238 -0.262114,1.7198 10.432346,25.61803 11.596156,25.85615 1.16346,0.23777 -9.596964,-24.52864 -9.600139,-25.24372 -0.0032,-0.71508 1.494014,-2.4945 3.310467,-0.1965 1.816453,2.29764 6.723592,18.00931 7.936792,20.01767 1.21321,2.00837 1.27812,0.28046 1.27812,0.28046"
         style="fill:#100f0d;fill-opacity:1;fill-rule:nonzero;stroke:none;stroke-width:0.0352778"
         id="path1055" /><path
         d="m 86.303484,149.16744 c 0,0 -10.163176,-18.8341 -9.492898,-22.15409 0.670631,-3.31964 3.855156,-3.8227 5.250745,-2.78483 1.395589,1.03823 10.59815,25.54993 9.938103,26.53736 -0.660047,0.98778 -10.425995,-24.18786 -10.926587,-24.69833 -0.500591,-0.51082 -2.816225,-0.72284 -2.492022,2.18828 0.324555,2.91077 7.884231,17.53235 8.434212,19.81342 0.54998,2.2807 -0.711553,1.09819 -0.711553,1.09819"
         style="fill:#100f0d;fill-opacity:1;fill-rule:nonzero;stroke:none;stroke-width:0.0352778"
         id="path1057" /><path
         d="m 109.61151,144.00489 c -0.65687,-0.21942 -4.3374,4.46158 -11.020423,6.8259 -6.683022,2.36396 -12.100631,2.10291 -12.076995,2.85856 0.02364,0.75565 6.672087,1.10843 11.529131,-0.81562 9.627657,-3.81353 12.788547,-8.46138 11.568287,-8.86884"
         style="fill:#100f0d;fill-opacity:1;fill-rule:nonzero;stroke:none;stroke-width:0.0352778"
         id="path1059" /><path
         d="m 84.338864,124.15938 c 0.688975,-2.30364 1.89865,-2.9323 2.316339,-3.0847 l -0.0067,-0.0155 c 0,0 1.373012,-0.91722 3.95217,0.49248 2.579159,1.4097 8.544984,23.83156 8.544984,23.83156 0,0 0.939803,2.0835 -0.03387,1.33702 -0.973314,-0.74683 -7.856009,-20.93948 -8.764764,-22.94749 -0.768703,-1.69827 -2.456392,-1.44004 -2.960159,-1.31974 l 0.0046,0.0106 c 0,0 -2.07645,1.03011 -1.310216,3.09668 0.76588,2.06657 10.072159,21.26333 9.905295,22.47865 -0.167217,1.21532 -0.964142,-0.92675 -0.964142,-0.92675 0,0 -11.525956,-20.13691 -10.683523,-22.95278"
         style="fill:#100f0d;fill-opacity:1;fill-rule:nonzero;stroke:none;stroke-width:0.0352778"
         id="path1061" /><path
         d="m 71.018327,124.36858 c 0,0 0.138289,2.43099 2.727325,3.37608 2.589037,0.94544 3.04412,-3.06917 1.924051,-5.09623 -1.120423,-2.02742 0.09278,-2.33469 0.674863,-1.61714 0.582084,0.71756 0.18027,4.27955 2.347031,3.14961 1.87572,-0.9779 -0.01517,-2.48144 0.116064,-4.25733 0.149225,-2.02142 0.986367,4.37868 4.0386,3.88938 3.051881,-0.48895 2.894895,-3.19899 1.852084,-5.73652 -1.043164,-2.53753 2.101144,-3.73416 3.024011,-1.72156 0.922867,2.01295 2.962628,3.94935 4.557184,2.24155 1.594555,-1.7078 -0.550686,-4.36633 0.576086,-5.11669 1.127125,-0.75036 1.099255,5.00204 3.781425,3.6128 2.68217,-1.38959 -0.03069,-4.96288 0.244122,-5.45853 0.274814,-0.49565 1.103136,-1.50601 2.776362,1.63371 1.673225,3.13937 2.017185,-0.44661 3.642075,2.80847 1.6249,3.25508 1.47849,6.85588 4.53602,5.21617 3.05788,-1.63936 -1.64747,-5.63774 -2.76754,-7.66516 -1.12042,-2.02706 2.43064,-7.12258 -2.38654,-9.06568 0,0 1.38571,-6.406081 -3.614565,-8.561201 -4.99992,-2.15477 -7.784043,0.61595 -7.784043,0.61595 0,0 -2.191455,-5.797197 -8.171039,-3.817757 -5.979937,1.979427 -5.799314,5.445467 -5.799314,5.445467 0,0 -2.47262,-2.52412 -7.389637,0.64488 -4.916664,3.169001 -3.336572,8.643401 -3.336572,8.643401 0,0 -3.10515,0.12806 -4.166659,4.29578 -1.061861,4.16807 2.580217,6.97688 2.580217,6.97688 0,0 -3.121378,3.57929 1.146528,6.5137 3.355269,2.30681 4.871861,-0.95003 4.871861,-0.95003"
         style="fill:#100f0d;fill-opacity:1;fill-rule:nonzero;stroke:none;stroke-width:0.0352778"
         id="path1063" /><path
         d="m 68.388721,124.77956 c 1.997076,0.0892 3.386667,-1.96321 3.454753,-2.06269 l -0.317147,1.49084 c 1.196975,2.7372 2.864556,3.12843 3.446639,2.09973 0.581731,-1.02835 0.02681,-2.37913 -0.694266,-4.30741 -0.404636,-1.08233 -0.451203,-1.7893 -0.118886,-2.22463 0.258586,-0.34149 0.751063,-0.51223 1.485547,-0.56162 1.675342,-0.11465 1.683808,3.39831 1.824214,3.91478 l 0.0042,0.01 c 0.154164,0.50765 1.528234,0.56868 1.133475,-0.90805 -0.396169,-1.48767 -0.904169,-3.07305 -0.235303,-4.06542 0.04798,-0.0716 0.09278,-0.13017 0.138289,-0.18027 0.598311,-0.6738 1.048456,0.26071 1.737784,1.7773 0.485422,1.06927 0.940153,2.05634 1.487311,2.49449 0.289278,0.22825 0.605014,0.30516 0.965906,0.15699 1.043869,-0.42898 1.228725,-1.72509 0.893939,-3.2378 -0.334787,-1.51306 -0.716492,-2.79118 0.562327,-4.39349 1.108781,-1.38854 2.918531,-1.07033 3.678767,-0.24024 0.115711,0.12735 0.206728,0.26528 0.267406,0.41239 0.32385,0.78846 0.990953,2.05564 1.74625,2.552 0.306564,0.20108 0.624769,0.27693 0.941564,0.14675 1.1049,-0.45402 0.835025,-1.63477 0.644878,-3.49426 -0.190148,-1.85949 0.315383,-1.85209 1.507066,-2.27013 1.191684,-0.41768 2.116667,3.57929 2.340681,3.77437 0.0695,0.0575 0.238478,0.0713 0.4318,0.004 0.432506,-0.14922 0.97155,-0.69532 0.695678,-1.97379 -0.399344,-1.84538 -1.48202,-2.90724 -1.48202,-2.90724 3.296709,-0.70908 6.258987,2.30717 8.361537,5.6769 0.99872,1.59914 1.88807,2.58269 2.56293,3.00249 0.74648,0.46849 1.23049,0.24942 1.30563,-0.57362 0.14535,-1.56703 -3.06564,-4.83975 -3.06564,-4.83975 0,0 -0.73589,-0.91758 -0.97719,-1.67958 -0.2413,-0.762 1.06962,-1.58785 0.62371,-4.41854 -0.44591,-2.83069 -4.106685,-2.83316 -4.106685,-2.83316 l 0.188737,-0.0861 1.504948,-0.68192 c 0.70238,-2.65677 -0.65334,-5.256734 -3.714043,-6.941241 -1.651706,-0.91123 -3.921831,-0.41452 -5.659261,0.23354 -1.396648,0.51928 -2.451101,1.13947 -2.564342,1.20579 l -0.0088,0.007 0.899936,-1.30281 c -1.121127,-2.55305 -4.866922,-5.032367 -8.677275,-2.60491 -1.333147,0.84914 -2.196747,1.93322 -2.759075,2.98803 -1.016353,1.898994 -1.045634,3.699221 -1.046692,3.808931 l -3.53e-4,0.006 -1.078442,-1.925107 c 0,0 -3.533775,-0.915804 -6.618464,1.356777 -0.304447,0.22261 -0.572205,0.46497 -0.806803,0.71897 -2.166055,2.31422 -1.684866,5.61551 -1.684866,5.61551 l 1.122186,1.3328 c 0,0 -1.25977,-0.27164 -2.289175,0.36689 -0.555273,0.34572 -1.411112,1.08514 -1.963562,2.16464 -0.472722,0.91758 -0.721783,2.08492 -0.386997,3.46569 0.710142,2.91465 3.727098,3.86468 3.900664,3.91689 l 0.0067,0.003 c 0,0 -2.040114,0.62336 -2.448631,1.72438 -0.0889,0.23742 -0.102658,0.56726 -0.04692,0.9405 0.196144,1.3575 1.279878,3.27449 2.885369,3.34646"
         style="fill:#ffffff;fill-opacity:1;fill-rule:nonzero;stroke:none;stroke-width:0.0352778"
         id="path1065" /><path
         d="m 91.787062,97.845339 c 0,0 1.811161,-0.60079 4.493683,0.68756 2.682523,1.288694 3.487562,6.509091 3.487562,6.509091 l 0.05433,-0.008 1.504953,-0.68192 c 0.70238,-2.65677 -0.65335,-5.256734 -3.714048,-6.941241 -1.651706,-0.91123 -3.921831,-0.41452 -5.659261,0.23354 -0.112537,0.12382 -0.167217,0.20073 -0.167217,0.20073"
         style="fill:#bcbcbe;fill-opacity:1;fill-rule:nonzero;stroke:none;stroke-width:0.0352778"
         id="path1067" /><path
         d="m 102.04619,108.60117 c 0.22825,2.53823 -1.31586,2.50401 0.69004,5.17031 2.00413,2.66947 2.85714,3.22897 3.46992,4.60163 0.29633,0.66499 0.0169,0.96344 -0.35207,1.09185 0.74647,0.46849 1.23049,0.24941 1.30563,-0.57362 0.14534,-1.56704 -3.06564,-4.83976 -3.06564,-4.83976 0,0 -0.7359,-0.91757 -0.9772,-1.67957 -0.2413,-0.762 1.06963,-1.58785 0.62371,-4.41854 -0.44591,-2.83069 -4.106682,-2.83316 -4.106682,-2.83316 l 0.188737,-0.0861 -1.930753,0.44309 c 0,0 3.925008,0.58878 4.154308,3.12384"
         style="fill:#bcbcbe;fill-opacity:1;fill-rule:nonzero;stroke:none;stroke-width:0.0352778"
         id="path1069" /><path
         d="m 96.875176,105.79976 c 0,0 -2.013656,-0.94262 -4.214284,0.10548 -2.200627,1.0481 -2.576689,2.11138 -2.576689,2.11138 0,0 -2.65818,-2.16042 -5.036608,-1.66159 -2.378075,0.49918 -3.344334,1.75754 -3.344334,1.75754 0,0 0.239889,-2.44299 2.816225,-3.74086 2.575984,-1.29822 4.988631,0.96344 4.988631,0.96344 0,0 4.203348,-4.78931 7.367059,0.46461"
         style="fill:#bcbcbe;fill-opacity:1;fill-rule:nonzero;stroke:none;stroke-width:0.0352778"
         id="path1071" /><path
         d="m 91.833276,101.79608 c 0,0 -1.672167,-1.27423 -2.991203,-0.87559 -1.319389,0.39864 -2.20345,1.62313 -2.20345,1.62313 0,0 -0.155223,-1.65841 1.660172,-2.595737 1.815395,-0.937677 3.369028,0.863947 3.534481,1.848197"
         style="fill:#bcbcbe;fill-opacity:1;fill-rule:nonzero;stroke:none;stroke-width:0.0352778"
         id="path1073" /><path
         d="m 77.085753,106.58892 c 0,0 -2.01542,-0.59796 -3.107267,0.24307 -1.091848,0.84102 -1.483431,2.29976 -1.483431,2.29976 0,0 -0.734131,-1.49543 0.630414,-3.01626 1.364192,-1.52082 3.456164,-0.38805 3.960284,0.47343"
         style="fill:#bcbcbe;fill-opacity:1;fill-rule:nonzero;stroke:none;stroke-width:0.0352778"
         id="path1075" /><path
         d="m 80.304144,114.18388 c 0,0 -1.971675,-0.72955 -3.116439,0.0378 -1.144764,0.76729 -1.631597,2.1971 -1.631597,2.1971 0,0 -0.633942,-1.54058 0.827617,-2.96828 1.461558,-1.42769 3.474156,-0.1598 3.920419,0.73343"
         style="fill:#bcbcbe;fill-opacity:1;fill-rule:nonzero;stroke:none;stroke-width:0.0352778"
         id="path1077" /><path
         d="m 76.4885,115.07358 c 0,0 -1.971675,-0.72919 -3.116439,0.0381 -1.145117,0.76729 -1.63195,2.19675 -1.63195,2.19675 0,0 -0.633942,-1.54023 0.827616,-2.96792 1.461559,-1.42769 3.474156,-0.15981 3.920773,0.73307"
         style="fill:#bcbcbe;fill-opacity:1;fill-rule:nonzero;stroke:none;stroke-width:0.0352778"
         id="path1079" /><path
         d="m 74.797283,117.72859 c 0,0 -1.971675,-0.72919 -3.116439,0.0377 -1.144764,0.76729 -1.63195,2.1971 -1.63195,2.1971 0,0 -0.633942,-1.54023 0.827617,-2.96792 1.461558,-1.42769 3.474508,-0.16016 3.920772,0.73307"
         style="fill:#bcbcbe;fill-opacity:1;fill-rule:nonzero;stroke:none;stroke-width:0.0352778"
         id="path1081" /><path
         d="m 78.844703,97.937409 c 5.890331,-4.797417 10.536414,0.91969 10.536414,0.91969 l 0.899936,-1.30281 c -1.121127,-2.55305 -4.866922,-5.032367 -8.677275,-2.60491 -1.333147,0.84914 -2.196747,1.93322 -2.759075,2.98803"
         style="fill:#bcbcbe;fill-opacity:1;fill-rule:nonzero;stroke:none;stroke-width:0.0352778"
         id="path1083" /><path
         d="m 69.293949,101.90298 c 0.03634,-0.0233 0.07514,-0.048 0.115359,-0.0758 3.608917,-2.393244 8.38835,-0.0748 8.38835,-0.0748 l -1.078442,-1.925097 c 0,0 -3.533775,-0.915804 -6.618464,1.356777 -0.304447,0.2226 -0.572205,0.46496 -0.806803,0.71896"
         style="fill:#bcbcbe;fill-opacity:1;fill-rule:nonzero;stroke:none;stroke-width:0.0352778"
         id="path1085" /><path
         d="m 89.849959,117.50634 c 0.306564,0.20108 0.624769,0.27693 0.941564,0.14675 1.1049,-0.45402 0.835025,-1.63477 0.644878,-3.49426 -0.190148,-1.85949 0.315383,-1.85209 1.507066,-2.27013 1.191684,-0.41768 2.116667,3.57929 2.340681,3.77437 0.0695,0.0575 0.238478,0.0713 0.4318,0.004 0,0 -0.718961,-3.76061 -2.371372,-4.37303 -1.652764,-0.61278 -2.366081,0.005 -2.777773,1.35678 -0.414161,1.35291 0.659695,3.35139 -0.09454,4.31024 -0.207081,0.25718 -0.419806,0.43074 -0.6223,0.54575"
         style="fill:#bcbcbe;fill-opacity:1;fill-rule:nonzero;stroke:none;stroke-width:0.0352778"
         id="path1087" /><path
         d="m 82.568625,121.39148 c -0.307975,0.52282 -0.595842,0.76447 -0.833261,0.86501 0.289278,0.22825 0.605014,0.30516 0.965906,0.15699 1.043869,-0.42898 1.228725,-1.72509 0.893939,-3.2378 -0.334787,-1.51306 -0.716492,-2.79118 0.562327,-4.39349 1.108781,-1.38854 2.918531,-1.07033 3.678767,-0.24024 0.0014,-0.003 0.0014,-0.003 0.0014,-0.003 0,0 -0.705908,-1.48096 -2.330803,-1.24355 -1.624894,0.23707 -3.069519,1.26154 -3.340805,2.80812 -0.274109,1.54798 1.218141,3.89995 0.402519,5.28849"
         style="fill:#bcbcbe;fill-opacity:1;fill-rule:nonzero;stroke:none;stroke-width:0.0352778"
         id="path1089" /><path
         d="m 67.992199,118.7654 0.0067,0.003 c 0,0 -4.008261,-4.16525 -3.544006,-7.2263 0.0078,-0.0579 0.01517,-0.10971 0.02364,-0.1591 -0.472722,0.91757 -0.721783,2.08491 -0.386997,3.46569 0.710142,2.91465 3.727098,3.86468 3.900664,3.91689"
         style="fill:#bcbcbe;fill-opacity:1;fill-rule:nonzero;stroke:none;stroke-width:0.0352778"
         id="path1091" /><path
         d="m 77.473808,123.13844 c 0.154164,0.50765 1.528234,0.56868 1.133475,-0.90805 -0.396169,-1.48767 -0.904169,-3.07305 -0.235303,-4.06542 0.04798,-0.0716 0.09278,-0.13017 0.138289,-0.18027 -0.316441,0.0896 -0.870302,0.43216 -0.64135,1.75049 0.312914,1.80869 0.926042,2.77672 0.0053,3.15525 -0.174272,0.0716 -0.305858,0.15734 -0.400403,0.248"
         style="fill:#bcbcbe;fill-opacity:1;fill-rule:nonzero;stroke:none;stroke-width:0.0352778"
         id="path1093" /><path
         d="m 71.843474,122.71687 -0.317147,1.49084 c 1.196975,2.7372 2.864556,3.12843 3.446639,2.09973 0.581731,-1.02835 0.02681,-2.37913 -0.694266,-4.30741 -0.404636,-1.08233 -0.451203,-1.7893 -0.118886,-2.22463 -0.02364,-0.0505 -0.03845,-0.079 -0.03845,-0.079 0,0 -0.92322,0.42828 -0.10407,3.00814 0.822678,2.58128 0.225778,2.87514 -0.210255,2.86209 -0.435681,-0.013 -1.963562,-2.84974 -1.963562,-2.84974"
         style="fill:#bcbcbe;fill-opacity:1;fill-rule:nonzero;stroke:none;stroke-width:0.0352778"
         id="path1095" /><path
         d="m 68.388721,124.77956 c 1.997076,0.0892 3.386667,-1.96321 3.454753,-2.06269 l 0.298451,-1.20191 c 0,0 -2.069042,1.9498 -3.769079,1.88489 -1.303866,-0.0497 -2.340327,-1.02165 -2.869494,-1.96674 0.196144,1.35749 1.279878,3.27448 2.885369,3.34645"
         style="fill:#bcbcbe;fill-opacity:1;fill-rule:nonzero;stroke:none;stroke-width:0.0352778"
         id="path1097" /><path
         d="m 73.115944,131.10205 c 0,0 -2.863497,-1.55893 -7.274278,1.0234 -4.410781,2.58234 4.069644,12.60581 4.398433,16.31845 0.328789,3.71228 7.782631,4.58187 9.436807,0.90946 l -0.432859,-2.30153 c 0,0 -1.748367,3.02684 -4.496858,2.78871 -2.748492,-0.23847 -3.198637,-2.78941 -3.96734,-4.86762 -0.76835,-2.07822 -4.424892,-8.27053 -4.445,-10.39954 -0.02046,-2.12937 7.193139,-1.84503 7.193139,-1.84503 l -0.412044,-1.6263"
         style="fill:#100f0d;fill-opacity:1;fill-rule:nonzero;stroke:none;stroke-width:0.0352778"
         id="path1099" /><path
         d="m 71.809255,128.03852 c 0,0 -5.075414,-0.99977 -8.402462,1.73108 -3.326694,2.73086 -2.054225,5.65221 -0.24765,9.00007 1.806575,3.34786 4.001912,8.68892 4.368448,10.97809 0.366889,2.28918 3.011664,4.35963 5.813072,4.71523 2.801409,0.3556 6.434315,-1.28094 6.434315,-1.28094 l 0.388761,1.9932 c 0,0 -8.114595,3.47839 -11.960579,-0.46637 -3.845983,-3.94512 -3.167591,-9.10379 -5.211939,-12.85593 -2.0447,-3.7525 -4.619978,-7.57379 -3.267781,-10.56958 1.352198,-2.99579 4.198056,-4.45241 6.967362,-4.87292 2.769306,-0.42051 4.213225,-0.22472 4.213225,-0.22472 l 0.905228,1.85279"
         style="fill:#100f0d;fill-opacity:1;fill-rule:nonzero;stroke:none;stroke-width:0.0352778"
         id="path1101" /><path
         d="m 52.355076,140.79567 c 0,0 0.881945,-2.82222 3.057455,-5.11527 2.175545,-2.29306 6.056101,-0.47026 7.23191,0.70555 1.175808,1.17616 1.778705,3.67489 3.366205,4.73322 1.5875,1.05833 1.455209,4.20405 -0.720372,4.55683 0,0 1.763889,6.99664 3.821642,8.05498 0,0 0.999772,1.5875 3.410303,2.05775 0,0 -5.820834,5.82083 -11.582754,4.58611 l -7.132461,5.08706 c -0.476391,0.34008 -1.138414,0.22754 -1.475881,-0.25083 L 44.3152,153.85551 c -0.310057,-0.43921 -0.240595,-1.0414 0.161113,-1.39841 l 5.115384,-4.54696 c 0,0 1.5875,-5.52697 2.763379,-7.11447"
         style="fill:#100f0d;fill-opacity:1;fill-rule:nonzero;stroke:none;stroke-width:0.0352778"
         id="path1103" /><path
         d="m 45.521276,152.97074 c -0.02826,0.19756 0.871326,1.51695 2.331756,3.34081 1.058333,1.32291 3.517159,5.04472 4.92125,6.99205 0.532765,0.74436 0.917222,1.2312 1.009015,1.2312 0.335139,0 5.422266,-3.81706 6.127821,-4.51909 0.702028,-0.70202 0.278695,-0.92427 -0.536222,-2.49766 -0.814917,-1.56986 -1.912056,-2.74814 -2.473114,-2.77636 -0.543207,-0.0282 -3.054949,1.96144 -3.376048,1.73566 -0.01062,-0.004 -0.01764,-0.0106 -0.02466,-0.0247 -0.08117,-0.18697 0.479672,-0.71261 1.040695,-1.27706 0.620783,-0.62794 1.248762,-1.30175 1.012437,-1.61219 -0.451591,-0.59267 -3.372627,-2.36009 -3.908814,-3.11856 -0.271603,-0.381 -0.366818,-0.70555 -0.366818,-0.91016 v -0.004 c 0,-0.19403 0.09162,-0.27517 0.201048,-0.17992 0.12707,0.11289 1.43577,1.49578 2.832841,2.48708 1.037096,0.73378 2.120089,1.25237 2.815237,0.88195 1.629834,-0.87136 2.218973,-2.75167 2.670528,-5.6127 0.366889,-2.35302 -0.381,-3.88761 -0.924278,-4.68841 -0.119944,-0.17286 -0.229305,-0.31398 -0.313972,-0.41981 -0.47625,-0.58914 -0.899583,-1.90853 -0.73025,-2.30011 0.07056,-0.16228 0.172861,-0.0318 0.282222,0.20108 0.151695,0.32809 0.321028,0.85725 0.419806,1.00542 0.162278,0.24342 1.118306,1.93322 1.608667,0.87136 0.01764,-0.0353 0.03528,-0.0705 0.04939,-0.11289 0.416277,-1.1183 1.188861,-1.18533 0.980722,-0.85372 -0.02822,0.0529 -0.08114,0.11289 -0.165806,0.17992 -0.617361,0.50447 -0.673805,1.6263 -0.673805,1.6263 0,0 0.225778,0.70203 1.294694,1.93675 1.065389,1.23472 2.388306,1.65806 3.679473,0.84314 0.377472,-0.23989 0.638528,-0.51858 0.818444,-0.8008 0.433917,-0.67381 0.395111,-1.33703 0.395111,-1.33703 0,0 -0.359833,0.26458 -1.146527,0.46214 -0.786695,0.19755 -1.809751,-0.79728 -2.116667,-1.60867 -0.310445,-0.81492 0.927805,-1.65806 0.927805,-1.65806 0,0 -0.310444,0 -0.733777,-1.00894 -0.419806,-1.00894 -1.837973,-2.22956 -1.837973,-2.22956 0,0 -1.245305,-1.1183 -1.770944,-1.22061 -0.529167,-0.10583 -0.737306,-0.0212 -1.118306,0.27164 -0.381,0.29634 -0.970139,0.58914 -0.843139,0.27517 0.127,-0.3175 0.991306,-0.71614 0.737306,-0.75847 -0.254,-0.0423 -0.440973,0.0635 -0.906639,0.4833 -0.462139,0.41981 -0.949114,1.28411 -1.012649,1.05128 -0.06336,-0.22931 0.190606,-0.83961 0.55051,-1.11478 0.356305,-0.27164 0.589139,-0.39864 0.377472,-0.3563 -0.208139,0.0423 -0.65278,0.18697 -1.390015,0.8008 -0.737411,0.61031 -2.846882,4.28625 -2.846882,4.28625 0,0 0.169193,0 0.310304,0.13759 0.141111,0.14111 -0.871326,1.01247 -1.238145,2.27541 -0.363396,1.26295 -1.460605,4.71311 -1.601717,5.05178 -0.141111,0.33514 -5.309305,4.37797 -5.337387,4.572"
         style="fill:#6f4424;fill-opacity:1;fill-rule:nonzero;stroke:none;stroke-width:0.0352778"
         id="path1105" /><path
         d="m 58.425924,153.90913 c 0,0 2.557639,2.99861 2.910416,4.49439 0.352778,1.50283 4.36739,0.57503 6.438195,-0.83608 2.070806,-1.41112 2.515306,-2.33892 2.515306,-2.33892 0,0 -3.090333,-1.84856 -3.750028,-4.23333 -0.659694,-2.37773 -1.234722,-4.40973 -1.541639,-4.58612 -0.310444,-0.17639 -0.973667,0.35278 -2.515306,-0.39511 -1.541639,-0.74789 -1.80975,-1.32291 -1.80975,-1.32291 0,0 0.1905,0.76552 0.299861,1.86972 0.208139,2.11667 0.109361,5.49275 -2.229555,7.14375 -0.102306,0.0705 -0.208139,0.14111 -0.3175,0.20461"
         style="fill:#6f4424;fill-opacity:1;fill-rule:nonzero;stroke:none;stroke-width:0.0352778"
         id="path1107" /><path
         d="m 66.473491,142.59625 c 0,0 -0.48507,0.59549 -1.190625,0.52917 -0.705556,-0.066 -1.477081,-0.63924 -1.499306,-1.23472 -0.02187,-0.59514 0.440972,-1.1684 0.595489,-1.23473 0.154164,-0.066 1.256595,0.74966 1.521178,0.90417 0.264583,0.15417 0.72778,0.59514 0.573264,1.03611"
         style="fill:#fabe9b;fill-opacity:1;fill-rule:nonzero;stroke:none;stroke-width:0.0352778"
         id="path1109" /><path
         d="m 65.166096,133.07301 c 1.413934,-0.70696 4.133851,-1.90394 5.16749,-1.7406 0,0 2.17558,-0.10866 1.958269,2.93723 -0.05433,0.75882 -0.254,1.30774 -0.550333,1.7279 0.790222,-0.26564 1.50495,-0.43144 1.931458,-0.36442 0,0 2.175934,-0.10865 1.95827,2.93758 -0.05609,0.78599 -0.270228,1.34515 -0.584553,1.77095 0.434269,0.0254 2.037997,0.29739 1.849614,2.93476 -0.0762,1.06539 -0.442031,1.71379 -0.958145,2.17522 0.537987,0.14253 1.39312,0.65088 1.26365,2.45357 -0.186266,2.60174 -2.377369,2.32305 -3.915833,3.57717 -1.538464,1.25448 -3.030361,0.7433 -3.729567,-0.69673 -0.397581,-0.81915 -0.236361,-1.77271 0.198614,-2.55447 -0.748595,-0.1845 -1.376892,-0.75 -1.779764,-1.58221 -0.495653,-1.02482 -0.246239,-2.22885 0.341842,-3.1757 -0.672042,-0.22472 -1.235428,-0.76306 -1.606551,-1.53 -0.460375,-0.95109 -0.280105,-2.05775 0.218017,-2.96898 -1.497894,0.74542 -2.863144,0.10337 -3.557764,-1.33209 -0.815975,-1.68628 0.381,-3.86186 1.795286,-4.56918"
         style="fill:#100f0d;fill-opacity:1;fill-rule:nonzero;stroke:none;stroke-width:0.0352778"
         id="path1111" /><path
         d="m 64.49723,137.62138 c 0.257527,0.47625 1.312333,0.97719 1.852083,0.92428 0.53975,-0.0529 1.132417,-0.635 0.642056,-0.60678 -0.486834,0.0247 -0.719667,-0.61031 -0.41275,-0.45156 0.310444,0.15875 1.054805,0.26459 2.395361,-0.58208 1.337028,-0.84667 1.979083,-0.76906 1.979083,-0.76906 0,0 0.472723,-0.91722 0.564445,-1.64041 0.02117,-0.1517 0.02469,-0.29634 0.0035,-0.42334 -0.130528,-0.71613 -0.335139,-1.42875 -0.310445,-1.03363 0.0247,0.39863 0.0247,1.08655 -0.204611,0.21166 -0.232833,-0.87136 -0.645583,-1.03011 -0.645583,-1.03011 -0.204612,-0.10583 -0.744362,-0.10583 -1.284112,0.13053 -0.53975,0.23989 -2.469444,1.37583 -3.037416,1.45697 -0.564445,0.0776 -1.414639,1.13947 -1.569862,1.45697 -0.137583,0.28575 0.807862,1.10773 0.733778,1.27 -0.0071,0.0176 -0.02822,0.0282 -0.0635,0.0282 -0.359833,0 -0.744361,-1.06187 -0.924278,-0.8502 -0.179916,0.21167 0.0247,1.43228 0.282223,1.90853"
         style="fill:#6f4424;fill-opacity:1;fill-rule:nonzero;stroke:none;stroke-width:0.0352778"
         id="path1113" /><path
         d="m 67.312396,140.62352 c 0,0.508 0.560917,1.57691 1.298223,1.70391 0.737305,0.13053 0.585611,-0.55738 2.264833,-1.32291 1.68275,-0.762 3.157362,-0.94192 3.157362,-0.94192 0.423333,-0.26105 0.575027,-0.73025 0.599722,-1.19944 0.03175,-0.49389 -0.07761,-0.98425 -0.141111,-1.22061 -0.112889,-0.40923 -0.278695,-1.016 -0.966612,-1.143 -0.687916,-0.13053 -1.146527,0.32808 -1.781527,0.4833 -0.638528,0.1517 -2.190751,0.889 -2.674056,1.11831 -0.483306,0.2293 -0.737306,0.3563 -0.585611,1.17122 0.134055,0.71261 0.832555,1.23119 0.493889,1.0795 -0.0035,0 -0.01058,-0.004 -0.01411,-0.007 -0.04586,-0.0247 -0.112889,-0.0564 -0.201084,-0.1023 -0.762,-0.40922 -0.687917,-1.62984 -0.814917,-1.47814 -0.127,0.15169 -0.635,1.35114 -0.635,1.85914"
         style="fill:#6f4424;fill-opacity:1;fill-rule:nonzero;stroke:none;stroke-width:0.0352778"
         id="path1115" /><path
         d="m 68.59298,145.61885 c 0.201083,0.68439 1.248833,1.0795 1.608667,1.0795 0.363361,0 1.368777,-1.22414 2.494139,-1.58397 1.128889,-0.35983 2.977444,-0.68086 2.977444,-0.68086 0.1905,-0.26106 0.236361,-0.47625 0.218723,-0.68439 -0.0035,0 -0.0035,0 -0.0035,0 -0.0247,-0.37042 -0.254,-0.70556 -0.254,-1.18886 0,-0.75495 -0.440973,-1.25942 -1.326445,-1.25942 -0.885472,0 -2.215444,0.4692 -2.899833,0.75495 -0.680861,0.28927 -1.647473,1.00894 -1.446389,1.43933 0.186972,0.40569 1.107722,1.27705 1.284111,1.48167 0,0 0,0.004 0.0035,0 0.01058,0.0176 0.02117,0.0282 0.02469,0.0353 0.0635,0.10936 -0.546805,0.10231 -1.231194,-0.508 -0.684389,-0.6103 -0.282223,-1.29469 -0.726723,-1.00894 -0.440972,0.28928 -0.924278,1.43933 -0.723194,2.12372"
         style="fill:#6f4424;fill-opacity:1;fill-rule:nonzero;stroke:none;stroke-width:0.0352778"
         id="path1117" /><path
         d="m 70.40273,149.9933 c 0.381,0.72319 1.107722,0.9913 1.718028,0.87489 0.610305,-0.11289 2.247194,-2.286 2.592917,-2.36362 0.342194,-0.0776 -0.497417,1.37231 -0.497417,1.37231 l 1.718028,-1.22061 c 0,0 0.1905,-1.6757 -0.229306,-2.06022 -0.419805,-0.381 -2.518833,-0.1905 -3.129139,0.0776 -0.366889,0.16227 -0.860778,0.55739 -1.252361,0.95602 -0.257528,0.26106 -0.469194,0.52564 -0.575028,0.7232 -0.268111,0.49389 -0.726722,0.91369 -0.345722,1.64042"
         style="fill:#6f4424;fill-opacity:1;fill-rule:nonzero;stroke:none;stroke-width:0.0352778"
         id="path1119" /><path
         d="m 58.425924,153.90913 c 0,0 2.557639,2.99861 2.910416,4.49439 0.352778,1.50283 4.36739,0.57503 6.438195,-0.83608 2.070806,-1.41112 2.515306,-2.33892 2.515306,-2.33892 0,0 -3.090333,-1.84856 -3.750028,-4.23333 -0.659694,-2.37773 -1.234722,-4.40973 -1.541639,-4.58612 -0.310444,-0.17639 -0.973667,0.35278 -2.515306,-0.39511 -1.541639,-0.74789 -1.80975,-1.32291 -1.80975,-1.32291 0,0 0.1905,0.76552 0.299861,1.86972 0.352778,0.4833 0.927806,1.06539 1.732139,1.25942 1.453445,0.35277 1.453445,0.35277 1.453445,0.35277 0,0 0.663222,3.48545 1.5875,4.80836 0.924278,1.32292 -0.176389,2.46945 -1.852083,3.12914 -1.474612,0.58561 -4.046362,-1.9438 -5.150556,-2.40594 -0.102306,0.0705 -0.208139,0.14111 -0.3175,0.20461"
         style="fill:#351f18;fill-opacity:1;fill-rule:nonzero;stroke:none;stroke-width:0.0352778"
         id="path1121" /><path
         d="m 51.50086,158.49524 c -0.395252,0.88195 3.132526,-0.97367 4.543637,-1.36878 1.411288,-0.39511 2.159177,1.10067 1.63001,2.25073 -0.469195,1.01247 -4.078217,2.99508 -4.900225,3.92641 0.532765,0.74436 0.917222,1.2312 1.009015,1.2312 0.335139,0 5.422266,-3.81706 6.127821,-4.51909 0.702028,-0.70202 0.278695,-0.92427 -0.536222,-2.49766 -0.814917,-1.56986 -1.912056,-2.74814 -2.473114,-2.77636 -0.543207,-0.0282 -3.054949,1.96144 -3.376048,1.73566 -0.790152,0.70203 -1.788548,1.49931 -2.024874,2.01789"
         style="fill:#351f18;fill-opacity:1;fill-rule:nonzero;stroke:none;stroke-width:0.0352778"
         id="path1123" /><path
         d="m 54.54177,155.1756 c 0.620783,-0.62794 1.248762,-1.30175 1.012437,-1.61219 -0.451591,-0.59267 -3.372627,-2.36009 -3.908814,-3.11856 -0.271603,-0.381 -0.366818,-0.70555 -0.366818,-0.91016 -0.141111,0.28575 -0.525745,1.29116 0.444394,2.30011 1.093611,1.13947 2.705947,2.63172 2.818801,3.3408"
         style="fill:#351f18;fill-opacity:1;fill-rule:nonzero;stroke:none;stroke-width:0.0352778"
         id="path1125" /><path
         d="m 70.40273,149.9933 c 0.381,0.72319 1.107722,0.9913 1.718028,0.87489 0.610305,-0.11289 2.247194,-2.286 2.592917,-2.36362 0.342194,-0.0776 -0.497417,1.37231 -0.497417,1.37231 l 1.718028,-1.22061 -0.860778,0.11289 c 0,0 0.462139,-1.18886 0.109361,-1.18886 -0.352778,0 -0.927805,0.74789 -1.608667,1.21355 -0.638527,0.43039 -2.067278,-0.58208 -2.250722,-1.16417 -0.257528,0.26106 -0.469194,0.52564 -0.575028,0.7232 -0.268111,0.49389 -0.726722,0.91369 -0.345722,1.64042"
         style="fill:#351f18;fill-opacity:1;fill-rule:nonzero;stroke:none;stroke-width:0.0352778"
         id="path1127" /><path
         d="m 68.59298,145.61885 c 0.201083,0.68439 1.248833,1.0795 1.608667,1.0795 0.363361,0 1.368777,-1.22414 2.494139,-1.58397 1.128889,-0.35983 2.977444,-0.68086 2.977444,-0.68086 0.1905,-0.26106 0.236361,-0.47625 0.218723,-0.68439 -0.0035,0 -0.0035,0 -0.0035,0 -0.278695,-0.06 -1.368778,-0.23636 -2.515306,0.25753 -1.121833,0.49036 -1.848556,0.88194 -2.123722,0.97014 0.01058,0.0176 0.02117,0.0282 0.02469,0.0353 0.0635,0.10936 -0.546805,0.10231 -1.231194,-0.508 -0.684389,-0.6103 -0.282223,-1.29469 -0.726723,-1.00894 -0.440972,0.28928 -0.924278,1.43933 -0.723194,2.12372"
         style="fill:#351f18;fill-opacity:1;fill-rule:nonzero;stroke:none;stroke-width:0.0352778"
         id="path1129" /><path
         d="m 67.312396,140.62352 c 0,0.508 0.560917,1.57691 1.298223,1.70391 0.737305,0.13053 0.585611,-0.55738 2.264833,-1.32291 1.68275,-0.762 3.157362,-0.94192 3.157362,-0.94192 0.423333,-0.26105 0.575027,-0.73025 0.599722,-1.19944 l -0.0247,-0.0388 c 0,0 -1.827389,0.33161 -3.284361,1.23472 -1.090083,0.68086 -1.87325,0.57503 -2.345972,0.29281 -0.0035,0 -0.01058,-0.004 -0.01411,-0.007 -0.04586,-0.0247 -0.112889,-0.0564 -0.201084,-0.1023 -0.762,-0.40922 -0.687917,-1.62984 -0.814917,-1.47814 -0.127,0.15169 -0.635,1.35114 -0.635,1.85914"
         style="fill:#351f18;fill-opacity:1;fill-rule:nonzero;stroke:none;stroke-width:0.0352778"
         id="path1131" /><path
         d="m 64.49723,137.62138 c 0.257527,0.47625 1.312333,0.97719 1.852083,0.92428 0.53975,-0.0529 1.132417,-0.635 0.642056,-0.60678 -0.486834,0.0247 -0.719667,-0.61031 -0.41275,-0.45156 0.310444,0.15875 1.054805,0.26459 2.395361,-0.58208 1.337028,-0.84667 1.979083,-0.76906 1.979083,-0.76906 0,0 0.472723,-0.91722 0.564445,-1.64041 -0.197556,0.0635 -0.504472,0.20108 -0.987778,0.47272 -1.411111,0.79375 -3.196167,2.13783 -3.944056,2.07081 -0.455083,-0.0388 -0.945444,-0.16581 -1.382889,-0.50448 -0.0071,0.0176 -0.02822,0.0282 -0.0635,0.0282 -0.359833,0 -0.744361,-1.06187 -0.924278,-0.8502 -0.179916,0.21167 0.0247,1.43228 0.282223,1.90853"
         style="fill:#351f18;fill-opacity:1;fill-rule:nonzero;stroke:none;stroke-width:0.0352778"
         id="path1133" /><path
         d="m 60.330924,142.61671 c 0,0 0.225778,0.70203 1.294694,1.93675 1.065389,1.23472 2.388306,1.65806 3.679473,0.84314 0.377472,-0.23989 0.638528,-0.51858 0.818444,-0.8008 -0.370416,0.15875 -1.167694,0.36688 -2.384778,0.0282 -1.739194,-0.48331 -2.776361,-1.56634 -2.910417,-2.02847 -0.130527,-0.46214 0.486834,-1.78506 0.352778,-1.78506 h -0.01058 c -0.02822,0.0529 -0.08114,0.11289 -0.165806,0.17992 -0.617361,0.50447 -0.673805,1.6263 -0.673805,1.6263"
         style="fill:#351f18;fill-opacity:1;fill-rule:nonzero;stroke:none;stroke-width:0.0352778"
         id="path1135" /><path
         d="m 60.140424,141.7771 c -0.306917,-0.13053 -0.878417,-1.31939 -1.49225,-1.71803 -0.246945,-0.15875 -0.419806,-0.1905 -0.536223,-0.15875 0.151695,0.32809 0.321028,0.85725 0.419806,1.00542 0.162278,0.24342 1.118306,1.93322 1.608667,0.87136"
         style="fill:#351f18;fill-opacity:1;fill-rule:nonzero;stroke:none;stroke-width:0.0352778"
         id="path1137" /><path
         d="m 54.312464,151.83832 c 1.037096,0.73378 2.120089,1.25237 2.815237,0.88195 1.629834,-0.87136 2.218973,-2.75167 2.670528,-5.6127 0.366889,-2.35302 -0.381,-3.88761 -0.924278,-4.68841 0.09878,0.60677 0.105834,1.34408 -0.07408,2.22602 -0.617361,3.02331 -3.658376,7.23195 -4.431065,7.18962 -0.02106,0 -0.0423,0 -0.05634,0.004"
         style="fill:#351f18;fill-opacity:1;fill-rule:nonzero;stroke:none;stroke-width:0.0352778"
         id="path1139" /><path
         d="m 61.011079,118.18226 c 0,0 -5.467879,-1.5875 -7.231768,0 -1.763889,1.5875 -0.79375,4.14514 1.5875,4.32153 2.381074,0.17639 4.938713,-2.73403 6.878991,-2.99861 1.940278,-0.26459 -1.234723,-1.32292 -1.234723,-1.32292"
         style="fill:#100f0d;fill-opacity:1;fill-rule:nonzero;stroke:none;stroke-width:0.0352778"
         id="path1141" /><path
         d="m 59.477907,118.69802 c 0,0 -3.410091,-0.87806 -4.510194,0 -1.100102,0.87806 -0.494982,2.2927 0.990001,2.39007 1.485018,0.0977 3.080279,-1.51201 4.290307,-1.65841 1.210028,-0.1464 -0.770114,-0.73166 -0.770114,-0.73166"
         style="fill:#ffffff;fill-opacity:1;fill-rule:nonzero;stroke:none;stroke-width:0.0352778"
         id="path1143" /><path
         d="m 91.823751,93.302622 c 0,0 0.176389,-5.729116 3.525661,-5.993347 3.349273,-0.264583 1.104195,3.016957 0.176036,4.142317 -1.035403,1.25624 -2.467681,2.468027 -3.261078,2.820457 -0.793044,0.35278 -0.440619,-0.969427 -0.440619,-0.969427"
         style="fill:#100f0d;fill-opacity:1;fill-rule:nonzero;stroke:none;stroke-width:0.0352778"
         id="path1145" /><path
         d="m 93.053887,91.744042 c 0,0 0.09913,-3.22474 1.984375,-3.37361 1.884892,-0.148873 0.621595,1.69827 0.09913,2.33186 -0.583142,0.70661 -1.389239,1.38889 -1.835503,1.5875 -0.446617,0.19826 -0.248003,-0.54575 -0.248003,-0.54575"
         style="fill:#ffffff;fill-opacity:1;fill-rule:nonzero;stroke:none;stroke-width:0.0352778"
         id="path1147" /><path
         d="m 77.238858,92.870462 c 0,1.461207 -1.184628,2.645837 -2.645833,2.645837 -1.461206,0 -2.645834,-1.18463 -2.645834,-2.645837 0,-1.4612 1.184628,-2.64583 2.645834,-2.64583 1.461205,0 2.645833,1.18463 2.645833,2.64583"
         style="fill:#100f0d;fill-opacity:1;fill-rule:nonzero;stroke:none;stroke-width:0.0352778"
         id="path1149" /><path
         d="m 76.114555,92.804492 c 0,0.82797 -0.671336,1.499307 -1.499305,1.499307 -0.82797,0 -1.499306,-0.671337 -1.499306,-1.499307 0,-0.82832 0.671336,-1.4993 1.499306,-1.4993 0.827969,0 1.499305,0.67098 1.499305,1.4993"
         style="fill:#ffffff;fill-opacity:1;fill-rule:nonzero;stroke:none;stroke-width:0.0352778"
         id="path1151" /><path
         d="m 63.656913,106.01143 c 0,1.12042 -0.90805,2.02847 -2.028472,2.02847 -1.12007,0 -2.028473,-0.90805 -2.028473,-2.02847 0,-1.12043 0.908403,-2.02848 2.028473,-2.02848 1.120422,0 2.028472,0.90805 2.028472,2.02848"
         style="fill:#100f0d;fill-opacity:1;fill-rule:nonzero;stroke:none;stroke-width:0.0352778"
         id="path1153" /><path
         d="m 62.730871,105.79094 c 0,0.63324 -0.513292,1.14653 -1.146528,1.14653 -0.633236,0 -1.146528,-0.51329 -1.146528,-1.14653 0,-0.63324 0.513292,-1.14653 1.146528,-1.14653 0.633236,0 1.146528,0.51329 1.146528,1.14653"
         style="fill:#ffffff;fill-opacity:1;fill-rule:nonzero;stroke:none;stroke-width:0.0352778"
         id="path1155" /><path
         d="m 145.73314,149.1685 c -2.15053,1.91488 -6.30379,-0.72496 -6.30379,-0.72496 -1.54587,-0.77893 -0.12876,-3.35386 -0.12876,-3.35386 l 6.60823,-14.50692 c 0,0 6.35882,1.46544 6.54297,1.54093 0.18415,0.0759 0.73731,1.52294 0.64735,1.91664 -0.09,0.3937 -1.30351,4.91808 -1.30351,4.91808 l -3.67454,6.67067 c 0,0 -0.23742,1.62454 -2.38795,3.53942 z m 7.47712,-3.40924 c 0,0 4.7685,-10.67012 5.44125,-12.30736 0.67275,-1.63724 -0.2286,-3.63432 -1.88031,-4.50427 -1.6517,-0.8703 -4.92583,-2.21615 -4.92583,-2.21615 l -4.65032,-0.0931 0.41734,-2.41194 c 0,0 -0.72849,-4.74875 -7.5819,-8.09167 -6.85377,-3.34328 -16.07715,-6.51228 -16.07715,-6.51228 l -3.70628,0.86889 -3.74544,6.78498 -6.9649,15.31691 c 0,0 -6.99205,11.19152 -6.00322,14.37287 0.98884,3.18135 10.72163,9.76489 17.83751,11.54148 7.11588,1.77623 10.36003,1.10031 10.36003,1.10031 l 5.74357,-6.05931 c 0,0 10.53007,3.94512 12.91978,-0.23954 2.38972,-4.18465 2.81587,-7.54979 2.81587,-7.54979"
         style="fill:#f9ae0b;fill-opacity:1;fill-rule:nonzero;stroke:none;stroke-width:0.0352778"
         id="path1157" /><path
         d="m 145.73314,149.1685 c -2.15053,1.91488 -6.30379,-0.72496 -6.30379,-0.72496 -1.54587,-0.77893 -0.12876,-3.35386 -0.12876,-3.35386 l 6.60823,-14.50692 c 0,0 6.35882,1.46544 6.54297,1.54093 0.18415,0.0759 0.73731,1.52294 0.64735,1.91664 -0.09,0.3937 -1.30351,4.91808 -1.30351,4.91808 l -3.67454,6.67067 c 0,0 -0.23742,1.62454 -2.38795,3.53942 z m 7.47712,-3.40924 c 0,0 4.7685,-10.67012 5.44125,-12.30736 0.67275,-1.63724 -0.2286,-3.63432 -1.88031,-4.50427 -1.6517,-0.8703 -4.92583,-2.21615 -4.92583,-2.21615 l -4.65032,-0.0931 0.41734,-2.41194 c 0,0 -0.72849,-4.74875 -7.5819,-8.09167 -6.85377,-3.34328 -16.07715,-6.51228 -16.07715,-6.51228 l -3.70628,0.86889 -3.74544,6.78498 -6.9649,15.31691 c 0,0 -6.99205,11.19152 -6.00322,14.37287 0.98884,3.18135 10.72163,9.76489 17.83751,11.54148 7.11588,1.77623 10.36003,1.10031 10.36003,1.10031 l 5.74357,-6.05931 c 0,0 10.53007,3.94512 12.91978,-0.23954 2.38972,-4.18465 2.81587,-7.54979 2.81587,-7.54979 z"
         style="fill:none;stroke:#211d1d;stroke-width:0.352778;stroke-linecap:butt;stroke-linejoin:miter;stroke-miterlimit:10;stroke-dasharray:none;stroke-opacity:1"
         id="path1159" /><path
         d="m 146.91883,129.34733 c 0,0 3.23814,-0.89359 5.77003,1.15147 2.53224,2.0454 3.44981,2.7813 1.41252,7.03932 -2.03694,4.25768 -3.92253,8.14741 -4.58188,10.10109 -0.65934,1.95333 -3.46427,2.66629 -3.46427,2.66629 0,0 3.87632,-7.16138 4.03895,-7.38187 0.16228,-0.22049 3.07728,-8.71008 3.07728,-8.71008 l -1.90041,-2.35974 c 0,0 -3.77684,-0.76305 -4.09822,-0.6798 -0.32138,0.0833 -1.61714,0.26811 -1.61714,0.26811 l 1.36314,-2.09479"
         style="fill:#f14625;fill-opacity:1;fill-rule:nonzero;stroke:none;stroke-width:0.0352778"
         id="path1161" /><path
         d="m 122.43252,137.94135 c 0,0 5.75627,-14.35453 7.69126,-14.34853 1.93499,0.006 1.24778,3.59868 -0.38806,8.45185 -1.63583,4.85316 4.04954,-7.23406 4.04954,-7.23406 l -1.00542,-3.14043 c 0,0 -3.49849,-0.21767 -3.69711,-0.084 -0.19861,0.1337 -1.77553,1.35114 -1.77553,1.35114 l -4.87468,15.00399"
         style="fill:#f14625;fill-opacity:1;fill-rule:nonzero;stroke:none;stroke-width:0.0352778"
         id="path1163" /><path
         d="m 112.02945,140.29967 c 0,0 1.86726,-9.52641 4.18853,-15.17439 2.32128,-5.64797 3.85551,-6.23747 3.85551,-6.23747 0,0 -6.64845,18.28589 -8.04404,21.41186"
         style="fill:#ffffff;fill-opacity:1;fill-rule:nonzero;stroke:none;stroke-width:0.0352778"
         id="path1165" /><path
         d="m 109.28766,143.73361 c 0,0 6.99065,3.80612 11.76585,5.76862 5.40244,2.22074 10.83275,2.80176 10.81511,3.36867 -0.0176,0.56692 -6.75817,0.37995 -10.44187,-1.13382 -3.68336,-1.51413 -9.35743,-4.99428 -9.35743,-4.99428 l -2.78166,-3.00919"
         style="fill:#ffffff;fill-opacity:1;fill-rule:nonzero;stroke:none;stroke-width:0.0352778"
         id="path1167" /><path
         d="m 121.51988,113.21515 c 0,0 -1.79423,2.03729 -3.64913,7.01604 -1.85491,4.97841 -6.1521,14.5027 -7.90717,17.60891 -1.75506,3.10586 -1.43545,5.82048 -0.31326,7.04744 1.12254,1.22661 9.94939,6.28968 13.63733,7.3272 3.68794,1.03716 8.96373,1.00506 9.46962,1.40405 0.50553,0.39935 -2.9965,4.0312 -9.92047,1.08973 -6.92397,-2.94146 -11.79266,-5.9951 -12.34546,-4.88279 -0.5528,1.11231 -0.49459,1.90182 -0.49459,1.90182 0,0 -6.28051,-4.97346 -6.61424,-7.88529 -0.33408,-2.91218 4.36986,-8.53757 4.36986,-8.53757 l 4.60129,-8.63424 2.74743,-9.01277 4.50674,-5.61093 2.58939,-0.94545 -0.67734,2.11385"
         style="fill:#f14625;fill-opacity:1;fill-rule:nonzero;stroke:none;stroke-width:0.0352778"
         id="path1169" /><path
         d="m 113.29592,139.56836 c 0,0 2.1142,-2.00166 3.46922,-5.82225 1.35502,-3.82023 4.30636,-12.22339 5.75698,-13.13427 1.45098,-0.91052 1.97909,0.59796 1.97909,0.59796 l 0.34819,-2.94252 c 0,0 -1.89548,-0.27658 -2.82681,0.41698 -0.93098,0.69392 -3.11679,3.74227 -3.11679,3.74227 l -5.22217,13.92838 -0.38771,3.21345"
         style="fill:#f14625;fill-opacity:1;fill-rule:nonzero;stroke:none;stroke-width:0.0352778"
         id="path1171" /><path
         d="m 132.22175,148.59912 c 0,0 5.37175,-8.08637 7.69338,-13.73435 2.32128,-5.64797 1.645,-7.14586 1.645,-7.14586 0,0 -8.13223,17.67628 -9.33838,20.88021"
         style="fill:#ffffff;fill-opacity:1;fill-rule:nonzero;stroke:none;stroke-width:0.0352778"
         id="path1173" /><path
         d="m 131.83581,147.18836 c 0,0 -0.0956,-2.90971 1.62772,-6.57895 1.72332,-3.66925 5.53402,-11.71893 5.14315,-13.38651 -0.39088,-1.66793 -1.82739,-0.96661 -1.82739,-0.96661 l 1.82174,-2.3368 c 0,0 1.54235,1.13594 1.71626,2.28388 0.17392,1.14829 -0.41557,4.85281 -0.41557,4.85281 l -6.08189,13.57489 -1.98402,2.55729"
         style="fill:#f14625;fill-opacity:1;fill-rule:nonzero;stroke:none;stroke-width:0.0352778"
         id="path1175" /><path
         d="m 124.51744,157.31273 c -1.98579,-0.36477 -8.20703,-2.84656 -12.19024,-5.26133 -3.16336,-1.91735 -8.21267,-7.1882 -4.52896,-12.90073 5.80425,-9.00042 9.89012,-24.81722 12.64285,-26.57017 3.60433,-2.29552 13.73787,2.77566 13.73787,2.77566 1.88913,0.29351 10.54312,3.43323 11.49139,7.59954 0.7246,3.18241 -7.49336,17.30058 -9.69575,27.7816 -1.39806,6.65198 -7.35365,7.32932 -11.45716,6.57543 z m 15.4559,-8.85508 c 0.89499,-7.76499 8.1414,-19.80882 8.55768,-23.84777 0.41593,-4.03896 -1.70321,-5.8667 -4.43794,-6.89505 -2.38972,-0.89853 -7.91422,-3.2318 -9.27136,-3.80647 l 0.004,-0.009 c 0,0 -6.90951,-2.74391 -9.57686,-3.93594 -2.6677,-1.19239 -5.45959,-1.38289 -8.00418,1.78117 -2.54423,3.16442 -5.86175,16.82292 -10.68599,22.97325 -4.82423,6.15033 -6.588124,10.20939 -4.31306,14.68473 1.52083,2.9919 9.29534,6.37293 14.28256,8.28569 4.87257,2.15053 12.95542,5.3153 16.18545,4.24286 4.76462,-1.58221 6.36482,-5.70865 7.26017,-13.47365"
         style="fill:#100f0d;fill-opacity:1;fill-rule:nonzero;stroke:none;stroke-width:0.0352778"
         id="path1177" /><path
         d="m 112.02945,140.29967 c 0,0 6.01874,-20.53732 8.82968,-22.42609 2.81129,-1.88913 5.42925,-0.007 5.69172,1.71238 0.26211,1.71944 -10.43235,25.61767 -11.59616,25.8558 -1.16347,0.23812 9.59696,-24.52865 9.60014,-25.24373 0.003,-0.71473 -1.49401,-2.49414 -3.31047,-0.1965 -1.81645,2.29765 -6.72359,18.00932 -7.93679,20.01768 -1.21321,2.00872 -1.27812,0.28046 -1.27812,0.28046"
         style="fill:#100f0d;fill-opacity:1;fill-rule:nonzero;stroke:none;stroke-width:0.0352778"
         id="path1179" /><path
         d="m 132.38015,148.66403 c 0,0 10.16317,-18.8341 9.49289,-22.15374 -0.67063,-3.31999 -3.85515,-3.82305 -5.25074,-2.78483 -1.39559,1.03787 -10.59815,25.54958 -9.9381,26.53736 0.66004,0.98742 10.42599,-24.18821 10.92658,-24.69868 0.50024,-0.51047 2.81623,-0.72284 2.49203,2.18828 -0.32456,2.91112 -7.88424,17.53235 -8.43422,19.81341 -0.54998,2.28106 0.71156,1.0982 0.71156,1.0982"
         style="fill:#100f0d;fill-opacity:1;fill-rule:nonzero;stroke:none;stroke-width:0.0352778"
         id="path1181" /><path
         d="m 109.07176,143.50148 c 0.65723,-0.21943 4.33776,4.46193 11.02078,6.8259 6.68303,2.36396 12.10063,2.10291 12.077,2.85856 -0.0236,0.756 -6.67209,1.10842 -11.52949,-0.81563 -9.6273,-3.81317 -12.78819,-8.46137 -11.56829,-8.86883"
         style="fill:#100f0d;fill-opacity:1;fill-rule:nonzero;stroke:none;stroke-width:0.0352778"
         id="path1183" /><path
         d="m 134.34477,123.65596 c -0.68898,-2.30364 -1.89865,-2.93194 -2.31634,-3.08469 l 0.006,-0.0155 c 0,0 -1.37266,-0.91722 -3.95182,0.49248 -2.57916,1.4097 -8.54498,23.83155 -8.54498,23.83155 0,0 -0.9398,2.08351 0.0339,1.33703 0.97331,-0.74648 7.856,-20.93913 8.76476,-22.94714 0.76835,-1.69862 2.45639,-1.44039 2.96016,-1.32009 l -0.005,0.0109 c 0,0 2.07645,1.02976 1.31022,3.09633 -0.76588,2.06693 -10.07251,21.26333 -9.9053,22.47865 0.16722,1.21532 0.96414,-0.92674 0.96414,-0.92674 0,0 11.52596,-20.13656 10.68353,-22.95279"
         style="fill:#100f0d;fill-opacity:1;fill-rule:nonzero;stroke:none;stroke-width:0.0352778"
         id="path1185" /><path
         d="m 147.6653,123.86516 c 0,0 -0.13829,2.43135 -2.72732,3.37644 -2.58904,0.94509 -3.04412,-3.06917 -1.92405,-5.09658 1.12042,-2.02742 -0.0928,-2.33469 -0.67487,-1.61679 -0.58208,0.71755 -0.18027,4.2792 -2.34703,3.14961 -1.87572,-0.9779 0.0152,-2.48145 -0.11606,-4.25768 -0.14923,-2.02142 -0.98637,4.37868 -4.0386,3.88973 -3.05223,-0.48895 -2.8949,-3.19935 -1.85208,-5.73688 1.04281,-2.53753 -2.10115,-3.73415 -3.02402,-1.7212 -0.92286,2.0126 -2.96262,3.94899 -4.55718,2.2412 -1.59455,-1.7078 0.55069,-4.36633 -0.57609,-5.11669 -1.12712,-0.75001 -1.09925,5.00239 -3.78142,3.61279 -2.68217,-1.38923 0.0307,-4.96287 -0.24412,-5.45853 -0.27482,-0.49565 -1.10349,-1.506 -2.77637,1.63372 -1.67322,3.13972 -2.01718,-0.44627 -3.64243,2.80882 -1.62489,3.25508 -1.47814,6.85553 -4.53566,5.21617 -3.05788,-1.63971 1.64747,-5.6381 2.76754,-7.66516 1.12042,-2.02741 -2.43064,-7.12293 2.38654,-9.06603 0,0 -1.38571,-6.406091 3.61456,-8.560851 4.99993,-2.155117 7.78405,0.61559 7.78405,0.61559 0,0 2.1911,-5.796837 8.17104,-3.817757 5.97993,1.979437 5.79931,5.445477 5.79931,5.445477 0,0 2.47262,-2.52413 7.38964,0.64523 4.91666,3.168991 3.33657,8.643051 3.33657,8.643051 0,0 3.1048,0.12806 4.16666,4.29613 1.06186,4.16771 -2.58057,6.97653 -2.58057,6.97653 0,0 3.12173,3.57929 -1.14618,6.51369 -3.35526,2.30717 -4.87186,-0.95003 -4.87186,-0.95003"
         style="fill:#100f0d;fill-opacity:1;fill-rule:nonzero;stroke:none;stroke-width:0.0352778"
         id="path1187" /><path
         d="m 150.29491,124.2765 c -1.99708,0.0889 -3.38702,-1.96321 -3.45511,-2.06304 l 0.3175,1.49083 c -1.19697,2.73756 -2.86455,3.12844 -3.44664,2.09974 -0.58173,-1.02835 -0.0268,-2.37914 0.69392,-4.30742 0.40463,-1.08232 0.45155,-1.78929 0.11924,-2.22427 -0.25859,-0.34184 -0.75107,-0.51258 -1.48555,-0.56197 -1.67534,-0.1143 -1.68381,3.39831 -1.82421,3.91478 l -0.004,0.01 c -0.15416,0.50764 -1.52823,0.56867 -1.13383,-0.90805 0.39617,-1.48767 0.90417,-3.07306 0.23566,-4.06542 -0.048,-0.0713 -0.0928,-0.13017 -0.13829,-0.18027 -0.59831,-0.67381 -1.04845,0.2607 -1.73778,1.77729 -0.48542,1.06927 -0.94015,2.05635 -1.48767,2.4945 -0.28892,0.2286 -0.60466,0.30551 -0.96555,0.15699 -1.04387,-0.42898 -1.22872,-1.72474 -0.89394,-3.2378 0.33479,-1.51307 0.71649,-2.79118 -0.56268,-4.3935 -1.10843,-1.38853 -2.91853,-1.07032 -3.67841,-0.24024 -0.11571,0.12771 -0.20673,0.26529 -0.26741,0.41275 -0.32385,0.78811 -0.9913,2.05528 -1.74625,2.55164 -0.30656,0.20109 -0.62477,0.27693 -0.94156,0.14676 -1.1049,-0.45403 -0.83503,-1.63477 -0.64488,-3.49427 0.19015,-1.85949 -0.31538,-1.85173 -1.50707,-2.26977 -1.19168,-0.41804 -2.11702,3.57893 -2.34068,3.77402 -0.0695,0.0578 -0.23883,0.0713 -0.4318,0.003 -0.4325,-0.14923 -0.97155,-0.69497 -0.69568,-1.97379 0.39935,-1.84503 1.48167,-2.90724 1.48167,-2.90724 -3.29636,-0.70909 -6.25863,2.30752 -8.36119,5.67725 -0.99871,1.59879 -1.88806,2.58233 -2.56293,3.00249 -0.74648,0.46814 -1.23049,0.24906 -1.30563,-0.57397 -0.14534,-1.56668 3.06564,-4.83976 3.06564,-4.83976 0,0 0.73589,-0.91757 0.97719,-1.67957 0.2413,-0.76165 -1.06962,-1.58785 -0.62371,-4.41854 0.44556,-2.83069 4.10669,-2.83316 4.10669,-2.83316 l -0.18874,-0.0861 -1.5053,-0.68157 c -0.70203,-2.65677 0.6537,-5.257081 3.7144,-6.941601 1.65171,-0.91122 3.92183,-0.41451 5.65926,0.23354 1.39665,0.51964 2.45075,1.13947 2.56399,1.20615 l 0.009,0.006 -0.89958,-1.30281 c 1.12113,-2.55305 4.86692,-5.032017 8.67727,-2.60491 1.33315,0.84913 2.1964,1.93322 2.75908,2.98838 1.01635,1.898647 1.04563,3.699221 1.04669,3.808581 l 3.5e-4,0.006 1.07809,-1.925104 c 0,0 3.53413,-0.915457 6.61882,1.356774 0.30445,0.22296 0.5722,0.46496 0.80645,0.71932 2.16641,2.31387 1.68487,5.61516 1.68487,5.61516 l -1.12184,1.3328 c 0,0 1.25977,-0.27129 2.28918,0.36689 0.55527,0.34607 1.41111,1.08514 1.96356,2.16464 0.47237,0.91758 0.72178,2.08527 0.38664,3.46604 -0.70979,2.9143 -3.72674,3.86468 -3.90031,3.91654 l -0.007,0.003 c 0,0 2.04046,0.62301 2.44898,1.72403 0.0889,0.23742 0.10266,0.56726 0.0469,0.9405 -0.19615,1.3575 -1.27988,3.27449 -2.88537,3.34681"
         style="fill:#ffffff;fill-opacity:1;fill-rule:nonzero;stroke:none;stroke-width:0.0352778"
         id="path1189" /><path
         d="m 126.89657,97.341919 c 0,0 -1.81116,-0.60078 -4.49368,0.68792 -2.68253,1.288337 -3.48757,6.509091 -3.48757,6.509091 l -0.0543,-0.008 -1.5053,-0.68157 c -0.70203,-2.65677 0.6537,-5.257081 3.7144,-6.941591 1.65171,-0.91123 3.92183,-0.41452 5.65926,0.23353 0.11254,0.12383 0.16722,0.20073 0.16722,0.20073"
         style="fill:#bcbcbe;fill-opacity:1;fill-rule:nonzero;stroke:none;stroke-width:0.0352778"
         id="path1191" /><path
         d="m 116.63744,108.09775 c -0.22825,2.53859 1.31586,2.50437 -0.69004,5.17031 -2.00413,2.66948 -2.85714,3.22898 -3.46992,4.60164 -0.29633,0.66498 -0.0173,0.96343 0.35207,1.0922 -0.74648,0.46813 -1.23049,0.24906 -1.30563,-0.57397 -0.14534,-1.56669 3.06564,-4.83976 3.06564,-4.83976 0,0 0.7359,-0.91757 0.9772,-1.67957 0.24129,-0.76165 -1.06963,-1.58786 -0.62372,-4.41855 0.44556,-2.83069 4.10669,-2.83315 4.10669,-2.83315 l -0.18874,-0.0861 1.9304,0.44345 c 0,0 -3.92465,0.58843 -4.15395,3.12349"
         style="fill:#bcbcbe;fill-opacity:1;fill-rule:nonzero;stroke:none;stroke-width:0.0352778"
         id="path1193" /><path
         d="m 121.8081,105.29635 c 0,0 2.01401,-0.94227 4.21464,0.10548 2.20063,1.0481 2.57669,2.11172 2.57669,2.11172 0,0 2.65818,-2.16076 5.03661,-1.66158 2.37807,0.49883 3.34398,1.75719 3.34398,1.75719 0,0 -0.23954,-2.44299 -2.81588,-3.74086 -2.57633,-1.29787 -4.98863,0.96344 -4.98863,0.96344 0,0 -4.20334,-4.78931 -7.36741,0.46461"
         style="fill:#bcbcbe;fill-opacity:1;fill-rule:nonzero;stroke:none;stroke-width:0.0352778"
         id="path1195" /><path
         d="m 126.85035,101.29302 c 0,0 1.67217,-1.27458 2.99121,-0.87559 1.31939,0.39864 2.20345,1.62313 2.20345,1.62313 0,0 0.15522,-1.65841 -1.66017,-2.596084 -1.8154,-0.937327 -3.36903,0.863944 -3.53449,1.848544"
         style="fill:#bcbcbe;fill-opacity:1;fill-rule:nonzero;stroke:none;stroke-width:0.0352778"
         id="path1197" /><path
         d="m 141.59788,106.08551 c 0,0 2.01542,-0.59761 3.10726,0.24342 1.0915,0.84066 1.48344,2.2994 1.48344,2.2994 0,0 0.73413,-1.49507 -0.63042,-3.01625 -1.36419,-1.52082 -3.45616,-0.38805 -3.96028,0.47343"
         style="fill:#bcbcbe;fill-opacity:1;fill-rule:nonzero;stroke:none;stroke-width:0.0352778"
         id="path1199" /><path
         d="m 138.37913,113.68046 c 0,0 1.97168,-0.72919 3.11644,0.0381 1.14512,0.76729 1.63195,2.19675 1.63195,2.19675 0,0 0.63394,-1.54023 -0.82761,-2.96792 -1.46156,-1.42769 -3.47416,-0.15981 -3.92078,0.73307"
         style="fill:#bcbcbe;fill-opacity:1;fill-rule:nonzero;stroke:none;stroke-width:0.0352778"
         id="path1201" /><path
         d="m 142.19513,114.57017 c 0,0 1.97168,-0.72919 3.11644,0.0381 1.14476,0.76729 1.63195,2.1971 1.63195,2.1971 0,0 0.63394,-1.54058 -0.82762,-2.96827 -1.46156,-1.4277 -3.47451,-0.15981 -3.92077,0.73307"
         style="fill:#bcbcbe;fill-opacity:1;fill-rule:nonzero;stroke:none;stroke-width:0.0352778"
         id="path1203" /><path
         d="m 143.88635,117.22517 c 0,0 1.97167,-0.72919 3.11644,0.0381 1.14476,0.76729 1.63195,2.19675 1.63195,2.19675 0,0 0.63359,-1.54023 -0.82797,-2.96792 -1.46156,-1.42769 -3.47416,-0.15981 -3.92042,0.73307"
         style="fill:#bcbcbe;fill-opacity:1;fill-rule:nonzero;stroke:none;stroke-width:0.0352778"
         id="path1205" /><path
         d="m 139.83893,97.434349 c -5.89033,-4.797777 -10.53677,0.91934 -10.53677,0.91934 l -0.89958,-1.30281 c 1.12113,-2.55305 4.86692,-5.032017 8.67727,-2.60491 1.33315,0.84913 2.1964,1.93322 2.75908,2.98838"
         style="fill:#bcbcbe;fill-opacity:1;fill-rule:nonzero;stroke:none;stroke-width:0.0352778"
         id="path1207" /><path
         d="m 149.38933,101.39991 c -0.036,-0.0236 -0.0748,-0.0483 -0.11501,-0.0762 -3.60927,-2.393231 -8.38835,-0.0748 -8.38835,-0.0748 l 1.07809,-1.925094 c 0,0 3.53413,-0.915457 6.61882,1.356774 0.30445,0.22295 0.5722,0.46496 0.80645,0.71931"
         style="fill:#bcbcbe;fill-opacity:1;fill-rule:nonzero;stroke:none;stroke-width:0.0352778"
         id="path1209" /><path
         d="m 128.83367,117.00292 c -0.30656,0.20109 -0.62477,0.27693 -0.94156,0.14676 -1.1049,-0.45403 -0.83503,-1.63477 -0.64488,-3.49427 0.19015,-1.85949 -0.31538,-1.85173 -1.50707,-2.26977 -1.19168,-0.41804 -2.11702,3.57893 -2.34068,3.77402 -0.0695,0.0579 -0.23883,0.0713 -0.4318,0.004 0,0 0.71896,-3.76061 2.37137,-4.37303 1.65242,-0.61243 2.36609,0.005 2.77778,1.35678 0.41416,1.3529 -0.6597,3.35139 0.0945,4.31024 0.20708,0.25717 0.41981,0.43074 0.6223,0.54575"
         style="fill:#bcbcbe;fill-opacity:1;fill-rule:nonzero;stroke:none;stroke-width:0.0352778"
         id="path1211" /><path
         d="m 136.11501,120.88842 c 0.30762,0.52246 0.59584,0.76447 0.8329,0.86466 -0.28892,0.2286 -0.60466,0.30551 -0.96555,0.15699 -1.04387,-0.42898 -1.22872,-1.72474 -0.89394,-3.2378 0.33479,-1.51307 0.71649,-2.79118 -0.56268,-4.3935 -1.10843,-1.38853 -2.91853,-1.07033 -3.67841,-0.24024 -0.002,-0.004 -0.002,-0.004 -0.002,-0.004 0,0 0.70626,-1.48061 2.33116,-1.24354 1.62489,0.23742 3.06952,1.26153 3.34081,2.80846 0.27375,1.54764 -1.21815,3.89961 -0.40252,5.2885"
         style="fill:#bcbcbe;fill-opacity:1;fill-rule:nonzero;stroke:none;stroke-width:0.0352778"
         id="path1213" /><path
         d="m 150.69143,118.26199 -0.007,0.003 c 0,0 4.00861,-4.16525 3.54435,-7.22666 -0.008,-0.0579 -0.0152,-0.10971 -0.0236,-0.1591 0.47237,0.91758 0.72178,2.08527 0.38664,3.46604 -0.70979,2.9143 -3.72674,3.86468 -3.90031,3.91654"
         style="fill:#bcbcbe;fill-opacity:1;fill-rule:nonzero;stroke:none;stroke-width:0.0352778"
         id="path1215" /><path
         d="m 141.20982,122.63503 c -0.15416,0.50764 -1.52823,0.56867 -1.13383,-0.90805 0.39617,-1.48767 0.90417,-3.07306 0.23566,-4.06542 -0.048,-0.0713 -0.0928,-0.13018 -0.13829,-0.18027 0.31644,0.09 0.8703,0.43215 0.64135,1.75048 -0.31291,1.80905 -0.92604,2.77672 -0.005,3.15525 0.17427,0.0716 0.30586,0.15734 0.4004,0.24801"
         style="fill:#bcbcbe;fill-opacity:1;fill-rule:nonzero;stroke:none;stroke-width:0.0352778"
         id="path1217" /><path
         d="m 146.8398,122.21346 0.3175,1.49083 c -1.19697,2.73756 -2.86455,3.12844 -3.44664,2.09974 -0.58173,-1.02835 -0.0268,-2.37914 0.69392,-4.30742 0.40463,-1.08232 0.45155,-1.78929 0.11924,-2.22427 0.0236,-0.0508 0.0381,-0.079 0.0381,-0.079 0,0 0.92357,0.42828 0.10442,3.00779 -0.82268,2.58127 -0.22578,2.87549 0.2099,2.86208 0.43604,-0.0131 1.96356,-2.84973 1.96356,-2.84973"
         style="fill:#bcbcbe;fill-opacity:1;fill-rule:nonzero;stroke:none;stroke-width:0.0352778"
         id="path1219" /><path
         d="m 150.29491,124.2765 c -1.99708,0.0889 -3.38702,-1.96321 -3.45511,-2.06304 l -0.29809,-1.20192 c 0,0 2.06904,1.9498 3.76907,1.88489 1.30352,-0.0497 2.34033,-1.02164 2.8695,-1.96674 -0.19615,1.3575 -1.27988,3.27449 -2.88537,3.34681"
         style="fill:#bcbcbe;fill-opacity:1;fill-rule:nonzero;stroke:none;stroke-width:0.0352778"
         id="path1221" /><path
         d="m 145.56733,130.59863 c 0,0 2.86385,-1.55892 7.27463,1.02341 4.41079,2.58233 -4.06964,12.60616 -4.39843,16.31844 -0.32879,3.71228 -7.78263,4.58188 -9.4368,0.90946 l 0.43285,-2.30152 c 0,0 1.74837,3.02719 4.49686,2.78871 2.74849,-0.23848 3.19864,-2.78941 3.96699,-4.86763 0.7687,-2.07821 4.42524,-8.27017 4.44535,-10.39954 0.0201,-2.12936 -7.19314,-1.84502 -7.19314,-1.84502 l 0.41169,-1.62631"
         style="fill:#100f0d;fill-opacity:1;fill-rule:nonzero;stroke:none;stroke-width:0.0352778"
         id="path1223" /><path
         d="m 146.87438,127.53511 c 0,0 5.07541,-0.99977 8.40246,1.73108 3.32669,2.73085 2.05422,5.65221 0.24765,9.00042 -1.80658,3.34786 -4.00191,8.68892 -4.36845,10.97809 -0.36689,2.28918 -3.01202,4.35928 -5.81307,4.71488 -2.80141,0.35595 -6.43467,-1.28094 -6.43467,-1.28094 l -0.38841,1.9932 c 0,0 8.1146,3.47874 11.96058,-0.46638 3.84598,-3.94476 3.16759,-9.10343 5.21194,-12.85593 2.0447,-3.75249 4.61998,-7.57378 3.26778,-10.56957 -1.3522,-2.99544 -4.19806,-4.45206 -6.96736,-4.87292 -2.76931,-0.42051 -4.21323,-0.22472 -4.21323,-0.22472 l -0.90522,1.85279"
         style="fill:#100f0d;fill-opacity:1;fill-rule:nonzero;stroke:none;stroke-width:0.0352778"
         id="path1225" /><path
         d="m 166.91815,140.89233 c 0,0 -0.88194,-2.82222 -3.05752,-5.11527 -2.17558,-2.29306 -6.05614,-0.47026 -7.23195,0.70555 -1.17581,1.17581 -1.7787,3.67489 -3.3662,4.73322 -1.5875,1.05834 -1.45521,4.2037 0.72037,4.55648 0,0 -1.76389,6.99699 -3.82164,8.05533 0,0 -0.99978,1.5875 -3.41031,2.05775 0,0 5.82084,5.82083 11.58276,4.58611 l 7.13246,5.08706 c 0.4766,0.33972 1.13841,0.22719 1.47602,-0.25083 l 8.01582,-11.35591 c 0.31009,-0.43921 0.24059,-1.04105 -0.16122,-1.39806 l -5.11528,-4.54696 c 0,0 -1.5875,-5.52697 -2.76331,-7.11447"
         style="fill:#100f0d;fill-opacity:1;fill-rule:nonzero;stroke:none;stroke-width:0.0352778"
         id="path1227" /><path
         d="m 173.75181,153.0674 c 0.0282,0.19756 -0.87136,1.51695 -2.33186,3.34081 -1.05833,1.32291 -3.5172,5.04472 -4.92125,6.99205 -0.5327,0.74436 -0.91722,1.2312 -1.00895,1.2312 -0.33513,0 -5.42219,-3.81706 -6.12775,-4.51909 -0.70202,-0.70202 -0.27869,-0.92427 0.53623,-2.49766 0.81491,-1.56986 1.91205,-2.74814 2.47297,-2.77636 0.54328,-0.0282 3.05505,1.96144 3.37608,1.73566 0.0106,-0.004 0.0176,-0.0106 0.0247,-0.0247 0.0811,-0.18697 -0.47978,-0.71261 -1.0407,-1.27706 -0.62089,-0.62794 -1.24883,-1.30175 -1.01247,-1.61219 0.45156,-0.59267 3.37256,-2.36008 3.90878,-3.11856 0.27164,-0.381 0.36689,-0.70555 0.36689,-0.91016 v -0.004 c 0,-0.19403 -0.0917,-0.27517 -0.20109,-0.17992 -0.127,0.11289 -1.4358,1.49578 -2.8328,2.48709 -1.03717,0.73377 -2.1202,1.25236 -2.81517,0.88194 -1.62983,-0.87136 -2.21897,-2.75167 -2.67053,-5.6127 -0.36689,-2.35302 0.381,-3.88761 0.92428,-4.68841 0.11995,-0.17286 0.22931,-0.31397 0.31397,-0.41981 0.47625,-0.58914 0.89959,-1.90853 0.73025,-2.30011 -0.0706,-0.16228 -0.17286,-0.0318 -0.28222,0.20108 -0.15169,0.32809 -0.32103,0.85725 -0.4198,1.00542 -0.16228,0.24342 -1.11831,1.93322 -1.60867,0.87136 -0.0176,-0.0353 -0.0353,-0.0705 -0.0494,-0.11289 -0.41628,-1.1183 -1.18886,-1.18533 -0.98072,-0.85372 0.0282,0.0529 0.0811,0.11289 0.1658,0.17992 0.61736,0.50447 0.67381,1.6263 0.67381,1.6263 0,0 -0.22578,0.70203 -1.2947,1.93675 -1.06538,1.23473 -2.3883,1.65806 -3.67947,0.84314 -0.37747,-0.23989 -0.63853,-0.51858 -0.81844,-0.8008 -0.43392,-0.67381 -0.39511,-1.33703 -0.39511,-1.33703 0,0 0.35983,0.26458 1.14652,0.46214 0.7867,0.19755 1.80975,-0.79728 2.11667,-1.60867 0.31045,-0.81492 -0.9278,-1.65805 -0.9278,-1.65805 0,0 0.31044,0 0.73377,-1.00895 0.41981,-1.00894 1.83798,-2.22955 1.83798,-2.22955 0,0 1.2453,-1.11831 1.77094,-1.22062 0.52917,-0.10583 0.73731,-0.0212 1.11831,0.27164 0.381,0.29634 0.97013,0.58914 0.84313,0.27517 -0.127,-0.3175 -0.9913,-0.71614 -0.7373,-0.75847 0.254,-0.0423 0.44097,0.0635 0.90664,0.4833 0.46214,0.41981 0.94897,1.28411 1.01247,1.05128 0.0635,-0.2293 -0.1905,-0.83961 -0.55033,-1.11478 -0.35631,-0.27164 -0.58914,-0.39864 -0.37748,-0.3563 0.20814,0.0423 0.65264,0.18697 1.38995,0.8008 0.7373,0.61031 2.84692,4.28625 2.84692,4.28625 0,0 -0.16934,0 -0.31045,0.13759 -0.14111,0.14111 0.87136,1.01247 1.23825,2.27541 0.36336,1.26295 1.4605,4.71312 1.60161,5.05178 0.14111,0.33514 5.30931,4.37797 5.33753,4.572"
         style="fill:#f8a060;fill-opacity:1;fill-rule:nonzero;stroke:none;stroke-width:0.0352778"
         id="path1229" /><path
         d="m 160.8472,154.00579 c 0,0 -2.55764,2.99861 -2.91042,4.49439 -0.35278,1.50283 -4.36739,0.57503 -6.43819,-0.83608 -2.07081,-1.41111 -2.51531,-2.33892 -2.51531,-2.33892 0,0 3.09033,-1.84856 3.75003,-4.23333 0.65969,-2.37773 1.23472,-4.40973 1.54164,-4.58612 0.31044,-0.17638 0.97367,0.35278 2.5153,-0.39511 1.54164,-0.74789 1.80975,-1.32291 1.80975,-1.32291 0,0 -0.1905,0.76552 -0.29986,1.86972 -0.20814,2.11667 -0.10936,5.49275 2.22956,7.14375 0.1023,0.0706 0.20814,0.14111 0.3175,0.20461"
         style="fill:#f8a060;fill-opacity:1;fill-rule:nonzero;stroke:none;stroke-width:0.0352778"
         id="path1231" /><path
         d="m 152.79963,142.69291 c 0,0 0.48507,0.59549 1.19063,0.52917 0.70555,-0.066 1.47708,-0.63923 1.4993,-1.23472 0.0219,-0.59514 -0.44097,-1.1684 -0.59549,-1.23473 -0.15416,-0.066 -1.25659,0.74966 -1.52117,0.90417 -0.26459,0.15417 -0.72779,0.59514 -0.57327,1.03611"
         style="fill:#fabe9b;fill-opacity:1;fill-rule:nonzero;stroke:none;stroke-width:0.0352778"
         id="path1233" /><path
         d="m 154.10703,133.16968 c -1.41394,-0.70732 -4.13385,-1.90395 -5.16749,-1.74061 0,0 -2.17558,-0.10901 -1.95827,2.93723 0.0543,0.75882 0.254,1.30775 0.55033,1.7279 -0.79022,-0.26599 -1.50495,-0.4318 -1.93146,-0.36442 0,0 -2.17593,-0.10865 -1.95827,2.93758 0.0561,0.78599 0.27023,1.34515 0.58456,1.7706 -0.43427,0.0258 -2.038,0.29739 -1.84962,2.93476 0.0762,1.06574 0.44203,1.71414 0.95779,2.17558 -0.53763,0.14252 -1.39276,0.65052 -1.26329,2.45357 0.18626,2.60138 2.37737,2.32268 3.91583,3.57716 1.53846,1.25413 3.03001,0.74331 3.72957,-0.69673 0.39758,-0.81915 0.23636,-1.77271 -0.19862,-2.55447 0.7486,-0.18485 1.37689,-0.75036 1.77977,-1.58256 0.49565,-1.02482 0.24624,-2.22885 -0.34185,-3.1757 0.67205,-0.22472 1.23543,-0.76271 1.60655,-1.53 0.46038,-0.95109 0.28011,-2.05775 -0.21836,-2.96898 1.49824,0.74542 2.86349,0.10372 3.55811,-1.33174 0.81598,-1.68627 -0.381,-3.86221 -1.79528,-4.56917"
         style="fill:#100f0d;fill-opacity:1;fill-rule:nonzero;stroke:none;stroke-width:0.0352778"
         id="path1235" /><path
         d="m 154.77589,137.71804 c -0.25752,0.47625 -1.31233,0.97719 -1.85208,0.92428 -0.53975,-0.0529 -1.13242,-0.635 -0.64206,-0.60678 0.48684,0.0247 0.71967,-0.61031 0.41275,-0.45156 -0.31044,0.15875 -1.0548,0.26459 -2.39536,-0.58208 -1.33703,-0.84667 -1.97908,-0.76905 -1.97908,-0.76905 0,0 -0.47272,-0.91723 -0.56445,-1.64042 -0.0212,-0.1517 -0.0247,-0.29633 -0.004,-0.42333 0.13052,-0.71614 0.33514,-1.42875 0.31044,-1.03364 -0.0247,0.39864 -0.0247,1.08655 0.20461,0.21166 0.23284,-0.87136 0.64559,-1.03011 0.64559,-1.03011 0.20461,-0.10583 0.74436,-0.10583 1.28411,0.13053 0.53975,0.23989 2.46944,1.37583 3.03741,1.45697 0.56445,0.0776 1.41464,1.13947 1.56987,1.45697 0.13758,0.28575 -0.80787,1.10773 -0.73378,1.27 0.007,0.0176 0.0282,0.0282 0.0635,0.0282 0.35983,0 0.74436,-1.06186 0.92428,-0.8502 0.17991,0.21167 -0.0247,1.43228 -0.28223,1.90853"
         style="fill:#f8a060;fill-opacity:1;fill-rule:nonzero;stroke:none;stroke-width:0.0352778"
         id="path1237" /><path
         d="m 151.96073,140.72018 c 0,0.508 -0.56092,1.57692 -1.29823,1.70392 -0.7373,0.13052 -0.58561,-0.55739 -2.26483,-1.32292 -1.68275,-0.762 -3.15736,-0.94192 -3.15736,-0.94192 -0.42333,-0.26105 -0.57503,-0.73025 -0.59972,-1.19944 -0.0317,-0.49389 0.0776,-0.98425 0.14111,-1.22061 0.11289,-0.40923 0.27869,-1.016 0.96661,-1.143 0.68792,-0.13053 1.14653,0.32808 1.78153,0.4833 0.63852,0.1517 2.19075,0.889 2.67405,1.11831 0.48331,0.2293 0.73731,0.3563 0.58561,1.17122 -0.13405,0.71261 -0.83255,1.23119 -0.49389,1.0795 0.004,0 0.0106,-0.004 0.0141,-0.007 0.0459,-0.0247 0.11288,-0.0564 0.20108,-0.1023 0.762,-0.40922 0.68792,-1.62983 0.81492,-1.47814 0.127,0.15169 0.635,1.35114 0.635,1.85914"
         style="fill:#f8a060;fill-opacity:1;fill-rule:nonzero;stroke:none;stroke-width:0.0352778"
         id="path1239" /><path
         d="m 150.68014,145.71551 c -0.20108,0.68439 -1.24883,1.0795 -1.60866,1.0795 -0.36337,0 -1.36878,-1.22414 -2.49414,-1.58397 -1.12889,-0.35983 -2.97745,-0.68086 -2.97745,-0.68086 -0.1905,-0.26106 -0.23636,-0.47625 -0.21872,-0.68439 0.004,0 0.004,0 0.004,0 0.0247,-0.37042 0.254,-0.70556 0.254,-1.18886 0,-0.75495 0.44097,-1.25942 1.32644,-1.25942 0.88547,0 2.21545,0.4692 2.89984,0.75495 0.68086,0.28927 1.64747,1.00894 1.44638,1.43933 -0.18697,0.40569 -1.10772,1.27706 -1.28411,1.48167 0,0 0,0.004 -0.004,0 -0.0106,0.0176 -0.0212,0.0282 -0.0247,0.0353 -0.0635,0.10937 0.54681,0.10231 1.2312,-0.508 0.68438,-0.6103 0.28222,-1.29469 0.72672,-1.00894 0.44097,0.28928 0.92428,1.43933 0.72319,2.12372"
         style="fill:#f8a060;fill-opacity:1;fill-rule:nonzero;stroke:none;stroke-width:0.0352778"
         id="path1241" /><path
         d="m 148.87039,150.08996 c -0.381,0.72319 -1.10772,0.9913 -1.71803,0.87489 -0.6103,-0.11289 -2.24719,-2.286 -2.59291,-2.36361 -0.3422,-0.0776 0.49741,1.3723 0.49741,1.3723 l -1.71802,-1.22061 c 0,0 -0.1905,-1.6757 0.2293,-2.06022 0.41981,-0.381 2.51884,-0.1905 3.12914,0.0776 0.36689,0.16228 0.86078,0.55739 1.25236,0.95603 0.25753,0.26105 0.4692,0.52564 0.57503,0.72319 0.26811,0.49389 0.72672,0.9137 0.34572,1.64042"
         style="fill:#f8a060;fill-opacity:1;fill-rule:nonzero;stroke:none;stroke-width:0.0352778"
         id="path1243" /><path
         d="m 160.8472,154.00579 c 0,0 -2.55764,2.99861 -2.91042,4.49439 -0.35278,1.50283 -4.36739,0.57503 -6.43819,-0.83608 -2.07081,-1.41111 -2.51531,-2.33892 -2.51531,-2.33892 0,0 3.09033,-1.84856 3.75003,-4.23333 0.65969,-2.37773 1.23472,-4.40973 1.54164,-4.58612 0.31044,-0.17638 0.97367,0.35278 2.5153,-0.39511 1.54164,-0.74789 1.80975,-1.32291 1.80975,-1.32291 0,0 -0.1905,0.76552 -0.29986,1.86972 -0.35277,0.4833 -0.9278,1.06539 -1.73214,1.25942 -1.45344,0.35277 -1.45344,0.35277 -1.45344,0.35277 0,0 -0.66322,3.48545 -1.5875,4.80837 -0.92428,1.32291 0.17639,2.46944 1.85208,3.12913 1.47461,0.58562 4.04636,-1.9438 5.15056,-2.40594 0.1023,0.0706 0.20814,0.14111 0.3175,0.20461"
         style="fill:#f6813d;fill-opacity:1;fill-rule:nonzero;stroke:none;stroke-width:0.0352778"
         id="path1245" /><path
         d="m 167.77223,158.5919 c 0.39511,0.88195 -3.13267,-0.97366 -4.54378,-1.36878 -1.41111,-0.39511 -2.159,1.10067 -1.62983,2.25073 0.46919,1.01247 4.07811,2.99508 4.90008,3.92641 -0.5327,0.74436 -0.91722,1.2312 -1.00895,1.2312 -0.33513,0 -5.42219,-3.81706 -6.12775,-4.51909 -0.70202,-0.70202 -0.27869,-0.92427 0.53623,-2.49766 0.81491,-1.56986 1.91205,-2.74814 2.47297,-2.77636 0.54328,-0.0282 3.05505,1.96144 3.37608,1.73566 0.79022,0.70203 1.78859,1.49931 2.02495,2.01789"
         style="fill:#f6813d;fill-opacity:1;fill-rule:nonzero;stroke:none;stroke-width:0.0352778"
         id="path1247" /><path
         d="m 164.73128,155.27226 c -0.62089,-0.62794 -1.24883,-1.30175 -1.01247,-1.61219 0.45156,-0.59267 3.37256,-2.36008 3.90878,-3.11856 0.27164,-0.381 0.36689,-0.70555 0.36689,-0.91016 0.14111,0.28575 0.52564,1.29116 -0.4445,2.30011 -1.09361,1.13947 -2.70581,2.63172 -2.8187,3.3408"
         style="fill:#f6813d;fill-opacity:1;fill-rule:nonzero;stroke:none;stroke-width:0.0352778"
         id="path1249" /><path
         d="m 148.87039,150.08996 c -0.381,0.72319 -1.10772,0.9913 -1.71803,0.87489 -0.6103,-0.11289 -2.24719,-2.286 -2.59291,-2.36361 -0.3422,-0.0776 0.49741,1.3723 0.49741,1.3723 l -1.71802,-1.22061 0.86077,0.11289 c 0,0 -0.46213,-1.18886 -0.10936,-1.18886 0.35278,0 0.92781,0.74789 1.60867,1.21355 0.63853,0.43039 2.06728,-0.58208 2.25072,-1.16416 0.25753,0.26105 0.4692,0.52564 0.57503,0.72319 0.26811,0.49389 0.72672,0.9137 0.34572,1.64042"
         style="fill:#f6813d;fill-opacity:1;fill-rule:nonzero;stroke:none;stroke-width:0.0352778"
         id="path1251" /><path
         d="m 150.68014,145.71551 c -0.20108,0.68439 -1.24883,1.0795 -1.60866,1.0795 -0.36337,0 -1.36878,-1.22414 -2.49414,-1.58397 -1.12889,-0.35983 -2.97745,-0.68086 -2.97745,-0.68086 -0.1905,-0.26106 -0.23636,-0.47625 -0.21872,-0.68439 0.004,0 0.004,0 0.004,0 0.27869,-0.06 1.36878,-0.23636 2.5153,0.25753 1.12184,0.49036 1.84856,0.88194 2.12373,0.97014 -0.0106,0.0176 -0.0212,0.0282 -0.0247,0.0353 -0.0635,0.10937 0.54681,0.10231 1.2312,-0.508 0.68438,-0.6103 0.28222,-1.29469 0.72672,-1.00894 0.44097,0.28928 0.92428,1.43933 0.72319,2.12372"
         style="fill:#f6813d;fill-opacity:1;fill-rule:nonzero;stroke:none;stroke-width:0.0352778"
         id="path1253" /><path
         d="m 151.96073,140.72018 c 0,0.508 -0.56092,1.57692 -1.29823,1.70392 -0.7373,0.13052 -0.58561,-0.55739 -2.26483,-1.32292 -1.68275,-0.762 -3.15736,-0.94192 -3.15736,-0.94192 -0.42333,-0.26105 -0.57503,-0.73025 -0.59972,-1.19944 l 0.0247,-0.0388 c 0,0 1.82739,0.33161 3.28436,1.23472 1.09009,0.68087 1.87325,0.57503 2.34597,0.29281 0.004,0 0.0106,-0.004 0.0141,-0.007 0.0459,-0.0247 0.11288,-0.0564 0.20108,-0.1023 0.762,-0.40922 0.68792,-1.62983 0.81492,-1.47814 0.127,0.15169 0.635,1.35114 0.635,1.85914"
         style="fill:#f6813d;fill-opacity:1;fill-rule:nonzero;stroke:none;stroke-width:0.0352778"
         id="path1255" /><path
         d="m 154.77589,137.71804 c -0.25752,0.47625 -1.31233,0.97719 -1.85208,0.92428 -0.53975,-0.0529 -1.13242,-0.635 -0.64206,-0.60678 0.48684,0.0247 0.71967,-0.61031 0.41275,-0.45156 -0.31044,0.15875 -1.0548,0.26459 -2.39536,-0.58208 -1.33703,-0.84667 -1.97908,-0.76905 -1.97908,-0.76905 0,0 -0.47272,-0.91723 -0.56445,-1.64042 0.19756,0.0635 0.50448,0.20108 0.98778,0.47272 1.41111,0.79375 3.19617,2.13783 3.94406,2.07081 0.45508,-0.0388 0.94544,-0.16581 1.38289,-0.50448 0.007,0.0176 0.0282,0.0282 0.0635,0.0282 0.35983,0 0.74436,-1.06186 0.92428,-0.8502 0.17991,0.21167 -0.0247,1.43228 -0.28223,1.90853"
         style="fill:#f6813d;fill-opacity:1;fill-rule:nonzero;stroke:none;stroke-width:0.0352778"
         id="path1257" /><path
         d="m 158.9422,142.71337 c 0,0 -0.22578,0.70203 -1.2947,1.93675 -1.06538,1.23473 -2.3883,1.65806 -3.67947,0.84314 -0.37747,-0.23989 -0.63853,-0.51858 -0.81844,-0.8008 0.37041,0.15875 1.16769,0.36689 2.38478,0.0282 1.73919,-0.48331 2.77636,-1.56633 2.91041,-2.02847 0.13053,-0.46214 -0.48683,-1.78506 -0.35278,-1.78506 h 0.0106 c 0.0282,0.0529 0.0811,0.11289 0.1658,0.17992 0.61736,0.50447 0.67381,1.6263 0.67381,1.6263"
         style="fill:#f6813d;fill-opacity:1;fill-rule:nonzero;stroke:none;stroke-width:0.0352778"
         id="path1259" /><path
         d="m 159.1327,141.87376 c 0.30692,-0.13053 0.87842,-1.31939 1.49225,-1.71803 0.24694,-0.15875 0.4198,-0.1905 0.53622,-0.15875 -0.15169,0.32809 -0.32103,0.85725 -0.4198,1.00542 -0.16228,0.24342 -1.11831,1.93322 -1.60867,0.87136"
         style="fill:#f6813d;fill-opacity:1;fill-rule:nonzero;stroke:none;stroke-width:0.0352778"
         id="path1261" /><path
         d="m 164.96059,151.93499 c -1.03717,0.73377 -2.1202,1.25236 -2.81517,0.88194 -1.62983,-0.87136 -2.21897,-2.75167 -2.67053,-5.6127 -0.36689,-2.35302 0.381,-3.88761 0.92428,-4.68841 -0.0988,0.60678 -0.10583,1.34408 0.0741,2.22603 0.61737,3.0233 3.65831,7.23194 4.43089,7.18961 0.0212,0 0.0423,0 0.0564,0.004"
         style="fill:#f6813d;fill-opacity:1;fill-rule:nonzero;stroke:none;stroke-width:0.0352778"
         id="path1263" /><path
         d="m 109.64997,96.808869 c -2.83246,0 -1.67252,3.211331 0.0857,4.205811 2.12442,1.20191 3.69111,2.4892 4.03436,1.63089 0.34326,-0.85831 -1.28764,-5.836701 -4.12009,-5.836701"
         style="fill:#100f0d;fill-opacity:1;fill-rule:nonzero;stroke:none;stroke-width:0.0352778"
         id="path1265" /><path
         d="m 110.26027,98.053119 c -1.67957,0 -0.99201,1.904644 0.0511,2.494481 1.25977,0.71261 2.18864,1.47638 2.39254,0.96732 0.20355,-0.50906 -0.76376,-3.461801 -2.44369,-3.461801"
         style="fill:#ffffff;fill-opacity:1;fill-rule:nonzero;stroke:none;stroke-width:0.0352778"
         id="path1267" /><path
         d="m 154.29153,105.30587 c 0,0 3.52778,-5.409137 6.46747,-3.99803 2.94005,1.41111 1.64642,4.46828 -1.1758,4.82106 -2.82223,0.35278 -5.52697,0.58808 -5.52697,0.11783 0,-0.47061 0.2353,-0.94086 0.2353,-0.94086"
         style="fill:#100f0d;fill-opacity:1;fill-rule:nonzero;stroke:none;stroke-width:0.0352778"
         id="path1269" /><path
         d="m 155.99897,104.75518 c 0,0 2.1082,-3.23215 3.86468,-2.38901 1.75684,0.84314 0.9839,2.67018 -0.70273,2.88079 -1.68628,0.21096 -3.30235,0.35136 -3.30235,0.0702 0,-0.28082 0.1404,-0.56198 0.1404,-0.56198"
         style="fill:#ffffff;fill-opacity:1;fill-rule:nonzero;stroke:none;stroke-width:0.0352778"
         id="path1271" /><path
         d="m 160.40623,119.81386 c 0,0.99836 -0.80928,1.80799 -1.80799,1.80799 -0.99836,0 -1.80799,-0.80963 -1.80799,-1.80799 0,-0.99836 0.80963,-1.80799 1.80799,-1.80799 0.99871,0 1.80799,0.80963 1.80799,1.80799"
         style="fill:#100f0d;fill-opacity:1;fill-rule:nonzero;stroke:none;stroke-width:0.0352778"
         id="path1273" /><path
         d="m 159.8185,119.69638 c 0,0.6089 -0.49354,1.10243 -1.10243,1.10243 -0.6089,0 -1.10243,-0.49353 -1.10243,-1.10243 0,-0.60889 0.49353,-1.10243 1.10243,-1.10243 0.60889,0 1.10243,0.49354 1.10243,1.10243"
         style="fill:#ffffff;fill-opacity:1;fill-rule:nonzero;stroke:none;stroke-width:0.0352778"
         id="path1275" /><path
         d="m 146.61861,92.664792 c 0,1.461207 -1.18463,2.645837 -2.64583,2.645837 -1.46121,0 -2.64584,-1.18463 -2.64584,-2.645837 0,-1.4612 1.18463,-2.64583 2.64584,-2.64583 1.4612,0 2.64583,1.18463 2.64583,2.64583"
         style="fill:#100f0d;fill-opacity:1;fill-rule:nonzero;stroke:none;stroke-width:0.0352778"
         id="path1277" /><path
         d="m 145.2957,92.517692 c 0,0.84419 -0.68439,1.528577 -1.52859,1.528577 -0.84455,0 -1.52894,-0.684387 -1.52894,-1.528577 0,-0.8442 0.68439,-1.52859 1.52894,-1.52859 0.8442,0 1.52859,0.68439 1.52859,1.52859"
         style="fill:#ffffff;fill-opacity:1;fill-rule:nonzero;stroke:none;stroke-width:0.0352778"
         id="path1279" /><path
         d="m 126.45136,91.547552 c 0,1.12042 -0.90805,2.02847 -2.02847,2.02847 -1.12007,0 -2.02847,-0.90805 -2.02847,-2.02847 0,-1.12043 0.9084,-2.02848 2.02847,-2.02848 1.12042,0 2.02847,0.90805 2.02847,2.02848"
         style="fill:#100f0d;fill-opacity:1;fill-rule:nonzero;stroke:none;stroke-width:0.0352778"
         id="path1281" /><path
         d="m 125.74581,91.430072 c 0,0.69815 -0.56586,1.264 -1.26401,1.264 -0.69814,0 -1.264,-0.56585 -1.264,-1.264 0,-0.69815 0.56586,-1.26436 1.264,-1.26436 0.69815,0 1.26401,0.56621 1.26401,1.26436"
         style="fill:#ffffff;fill-opacity:1;fill-rule:nonzero;stroke:none;stroke-width:0.0352778"
         id="path1283" /><text
         xml:space="preserve"
         style="font-style:normal;font-variant:normal;font-weight:normal;font-stretch:normal;font-size:37.1181px;font-family:'Syamala Ramana';-inkscape-font-specification:'Syamala Ramana, Normal';font-variant-ligatures:normal;font-variant-caps:normal;font-variant-numeric:normal;font-variant-east-asian:normal;text-align:center;text-anchor:middle;fill:#ffffff;fill-opacity:1;stroke:#2b1100;stroke-width:4.047;stroke-linecap:round;stroke-linejoin:round;stroke-dasharray:none;stroke-opacity:1;paint-order:stroke fill markers"
         x="105.36913"
         y="194.48965"
         id="text1924"><tspan
           sodipodi:role="line"
           id="tspan1922"
           style="font-style:normal;font-variant:normal;font-weight:normal;font-stretch:normal;font-size:37.1181px;font-family:'Syamala Ramana';-inkscape-font-specification:'Syamala Ramana, Normal';font-variant-ligatures:normal;font-variant-caps:normal;font-variant-numeric:normal;font-variant-east-asian:normal;fill:#ffffff;fill-opacity:1;stroke:#2b1100;stroke-width:4.047;stroke-linecap:round;stroke-linejoin:round;stroke-dasharray:none;stroke-opacity:1;paint-order:stroke fill markers"
           x="105.36913"
           y="194.48965">Copo Cheio</tspan></text><text
         xml:space="preserve"
         style="font-style:italic;font-variant:normal;font-weight:normal;font-stretch:normal;font-size:21.5757px;font-family:P052;-inkscape-font-specification:'P052, Italic';font-variant-ligatures:normal;font-variant-caps:normal;font-variant-numeric:normal;font-variant-east-asian:normal;text-align:center;text-anchor:middle;fill:#fcd552;fill-opacity:1;stroke:none;stroke-width:2.48164;stroke-linecap:round;stroke-linejoin:round;stroke-dasharray:none;paint-order:markers stroke fill"
         x="118.08969"
         y="223.78389"
         id="text1978"
         transform="rotate(-5.4341274)"><tspan
           sodipodi:role="line"
           id="tspan1976"
           style="font-style:italic;font-variant:normal;font-weight:normal;font-stretch:normal;font-size:21.5757px;font-family:P052;-inkscape-font-specification:'P052, Italic';font-variant-ligatures:normal;font-variant-caps:normal;font-variant-numeric:normal;font-variant-east-asian:normal;fill:#fcd552;fill-opacity:1;stroke:none;stroke-width:2.48164;stroke-linecap:round;stroke-linejoin:round;stroke-dasharray:none;paint-order:markers stroke fill"
           x="118.08969"
           y="223.78389">Delivery</tspan></text></g></g></svg>
